<?xml version="1.0" standalone="no"?>
<!DOCTYPE svg PUBLIC "-//W3C//DTD SVG 1.1//EN" "http://www.w3.org/Graphics/SVG/1.1/DTD/svg11.dtd" >
<svg xmlns="http://www.w3.org/2000/svg">
<metadata></metadata>
<defs>
<font id="gill_sans_mt_prolight" horiz-adv-x="1024" >
<font-face units-per-em="2048" ascent="1397" descent="-651" />
<missing-glyph horiz-adv-x="512" />
<glyph unicode="&#xfb01;" horiz-adv-x="980" d="M25 842v78h168v114q0 125 38 213q24 54 65 91t88 52t78 20t60 5q62 0 115 -14t98 -43.5t72 -80.5t31 -120h-99q-4 25 -8.5 42.5t-19 44.5t-35 44t-58.5 30t-88 13q-121 0 -180 -65.5t-59 -231.5v-114h190v-78h-190v-842h-98v842h-168zM739 0v920h99v-920h-99z" />
<glyph unicode="&#xfb02;" horiz-adv-x="980" d="M27 844v76h170v114q0 52 1.5 80t11 72t28.5 80q36 69 108.5 109t157.5 40q70 0 139 -31v-96q-100 31 -151 31q-56 0 -106.5 -30.5t-68.5 -78.5q-22 -67 -22 -176v-114h190v-76h-190v-844h-98v844h-170zM739 0v1397h99v-1397h-99z" />
<glyph unicode="&#xfb03;" horiz-adv-x="1536" d="M27 844v76h172v114q0 86 10 139t37 101q85 141 280 141q50 0 95.5 -10.5t72.5 -23t54.5 -34t36.5 -31t24 -26.5q14 18 23.5 28.5t35.5 31.5t52.5 33t70 22t94.5 10q37 0 74 -5.5t80.5 -22.5t76 -44t56 -74.5t25.5 -109.5h-99q-6 28 -10.5 44.5t-19.5 45t-35.5 44.5 t-58 29t-87.5 13q-136 0 -186.5 -72t-50.5 -229v-114h190v-76h-190v-844h-98v844h-455v-844h-98v844h-172zM297 920h455v114q0 85 14 154q-65 149 -238 149q-48 0 -85.5 -13t-61.5 -31.5t-41 -49t-25 -54.5t-12.5 -59t-5 -52t-0.5 -44v-114zM1298 0v920h99v-920h-99z" />
<glyph unicode="&#xfb04;" horiz-adv-x="1536" d="M25 844v76h172v114q0 84 6 128t26 87q80 166 295 166q98 0 156 -29.5t129 -95.5q98 125 254 125q64 0 133 -31v-94q-85 29 -143 29q-56 0 -108.5 -32t-70.5 -83q-26 -76 -26 -170v-114h190v-76h-190v-844h-100v844h-453v-844h-98v844h-172zM295 920h453v114q0 74 12 156 q-12 21 -19.5 33.5t-29 37t-44.5 38.5t-61 26t-82 12q-20 0 -42.5 -3.5t-55 -14t-61.5 -36t-46 -62.5q-24 -55 -24 -187v-114zM1296 0v1397h99v-1397h-99z" />
<glyph horiz-adv-x="2048" />
<glyph horiz-adv-x="2048" />
<glyph unicode="&#xd;" horiz-adv-x="2048" />
<glyph unicode=" "  horiz-adv-x="512" />
<glyph unicode="&#x09;" horiz-adv-x="512" />
<glyph unicode="&#xa0;" horiz-adv-x="512" />
<glyph unicode="!" horiz-adv-x="362" d="M117 0v197h131v-197h-131zM117 1397h131l-19 -666l-20 -338h-57z" />
<glyph unicode="&#x22;" horiz-adv-x="575" d="M80 1157v240h147v-240l-28 -266h-90zM348 1157v240h148v-240l-29 -266h-90z" />
<glyph unicode="#" horiz-adv-x="1351" d="M158 408v92h188l84 397h-272v92h291l86 418h94l-86 -418h387l90 418h94l-86 -418h166v-92h-184l-80 -397h264v-92h-289l-90 -416h-90l90 416h-393l-90 -416h-90l90 416h-174zM440 500h391l82 397h-391z" />
<glyph unicode="$" horiz-adv-x="1067" d="M72 145v113q134 -95 222.5 -130.5t188.5 -47.5v565q-35 11 -55.5 17.5t-67.5 25.5t-78 37t-72 48.5t-65.5 63.5t-42.5 79.5t-18 97.5q0 32 7 66t32.5 81.5t66.5 85t117 68t176 39.5v61h97v-61q109 -9 185.5 -35.5t166.5 -89.5v-115q-85 62 -164 96t-188 45v-532 q34 -9 56.5 -16t69.5 -25.5t80.5 -37t75 -50t67.5 -66t44 -83t18 -103.5q0 -41 -11.5 -84t-41.5 -90t-75 -85t-118.5 -66t-164.5 -35v-222h-97v222q-242 17 -411 163zM184 1020q0 -34 10.5 -63.5t24.5 -51.5t41 -43t48 -34t57.5 -29t57.5 -23.5t60 -21.5v501 q-123 -3 -211 -71t-88 -164zM580 82q52 2 105 18.5t99 47t74.5 79t28.5 107.5q0 57 -22 102t-66.5 77t-95 54.5t-123.5 44.5v-530z" />
<glyph unicode="%" horiz-adv-x="1429" d="M39 1087q0 136 97 232t233 96t231.5 -96.5t95.5 -231.5q0 -136 -96 -232.5t-231 -96.5q-136 0 -233 96t-97 233zM94 -18l1127 1433h100l-1124 -1433h-103zM127 1085q0 -100 71 -170.5t171 -70.5t170.5 70.5t70.5 170.5q0 101 -71 171.5t-170 70.5q-100 0 -171 -70.5 t-71 -171.5zM733 311q0 136 96.5 232t231.5 96q136 0 233 -96.5t97 -231.5q0 -136 -96.5 -232.5t-233.5 -96.5q-134 0 -231 96t-97 233zM819 309q0 -100 71 -170.5t171 -70.5t171 70.5t71 170.5q0 101 -71 171.5t-171 70.5q-99 0 -170.5 -70.5t-71.5 -171.5z" />
<glyph unicode="&#x26;" horiz-adv-x="1259" d="M53 313q0 35 6.5 70.5t28.5 84.5t58 93.5t101 92.5t152 85q-51 58 -71.5 84t-50.5 71t-41 84.5t-11 86.5q0 122 92.5 213.5t239.5 91.5q137 0 221 -85t84 -204q0 -46 -13 -89t-31 -75t-47.5 -63t-53 -51t-57 -41t-50 -30t-41.5 -21l318 -330q90 125 153 315h115 q-81 -238 -192 -395l284 -301h-137l-211 219q-27 -30 -48.5 -51.5t-69 -60t-94 -63t-114.5 -43.5t-139 -19q-161 0 -271 96.5t-110 234.5zM172 336q0 -108 73.5 -182t200.5 -74q202 0 379 215l-354 369q-42 -18 -74 -34t-77.5 -47t-75 -63.5t-51 -81t-21.5 -102.5zM330 1071 q0 -127 170 -285q143 59 202.5 135.5t59.5 151.5q0 78 -57 138.5t-154 60.5q-96 0 -158.5 -59.5t-62.5 -141.5z" />
<glyph unicode="'" horiz-adv-x="448" d="M150 1157v240h147v-240l-27 -266h-92z" />
<glyph unicode="(" horiz-adv-x="681" d="M164 477q0 107 18 211t43 183t66.5 161t72.5 132.5t79 110t67.5 81.5t54.5 59h103q-169 -154 -285.5 -402.5t-116.5 -533.5q0 -358 176 -663q39 -67 84.5 -126t70.5 -85t71 -70h-103q-112 118 -178 215q-107 160 -165 348.5t-58 378.5z" />
<glyph unicode=")" horiz-adv-x="681" d="M16 -465q49 49 70.5 71.5t68.5 83t85 126.5q176 305 176 663q0 146 -33 288.5t-90 261t-127 216t-150 170.5h101q37 -40 56 -60.5t68 -82t79 -110.5t72 -131.5t66 -160.5t42 -182t18 -211q0 -191 -57 -379.5t-164 -347.5q-74 -109 -180 -215h-101z" />
<glyph unicode="*" horiz-adv-x="960" d="M66 950v97l368 -31q2 2 2 4l-2 4l-280 231l71 72l232 -280q6 2 10 0l-33 368h94l-36 -368q6 2 12 0l235 280l70 -72l-281 -231q-4 0 -4 -4t4 -4l367 31v-97l-367 41q-2 0 -4 -2.5t-2 -3.5t2 -3.5t4 -2.5l281 -234l-70 -69l-235 285q-5 -2 -12 0l36 -377h-94l33 377 q-4 -2 -10 0l-232 -285l-71 69l288 234q-6 6 -8 12z" />
<glyph unicode="+" horiz-adv-x="1351" d="M139 651v94h490v490h94v-490h489v-94h-489v-489h-94v489h-490z" />
<glyph unicode="," horiz-adv-x="362" d="M115 0v195h133v-119q0 -220 -133 -316v70q14 27 19.5 39t14.5 50t9 81h-43z" />
<glyph unicode="-" horiz-adv-x="638" d="M78 414v96h485v-96h-485z" />
<glyph unicode="." horiz-adv-x="362" d="M115 0v199h133v-199h-133z" />
<glyph unicode="/" horiz-adv-x="575" d="M16 -18l449 1433h96l-450 -1433h-95z" />
<glyph unicode="0" d="M66 674q0 162 28.5 299t71.5 211q57 99 144 165t202 66q69 0 133.5 -26.5t121.5 -84.5t99.5 -141t67 -204t24.5 -267t-27 -267.5t-71 -202t-102.5 -136t-119 -80t-122.5 -24.5q-72 0 -138 28t-123 85.5t-99 139t-66 194.5t-24 245zM170 700q0 -171 39 -310t117 -223.5 t182 -84.5q73 0 133 39t99 102t66 145.5t38.5 167t11.5 169.5q0 72 -9.5 149t-34 162t-61.5 151.5t-98.5 110t-138.5 43.5q-85 0 -152.5 -54.5t-108.5 -145t-62 -198.5t-21 -223z" />
<glyph unicode="1" d="M459 0v1397h106v-1397h-106z" />
<glyph unicode="2" d="M72 0q241 221 458 532q191 272 191 490q0 134 -96.5 216.5t-214.5 82.5q-90 0 -162 -39.5t-156 -114.5v121q150 127 326 127q119 0 214 -57t145 -147t50 -191q0 -109 -44 -231t-165 -302q-26 -39 -55 -78t-64 -83t-58 -72.5t-67 -81.5t-61 -74h650v-98h-891z" />
<glyph unicode="3" d="M90 51v96q148 -71 311 -71q146 0 237 82t91 217q0 40 -8.5 79t-33.5 82.5t-64 76t-105.5 53.5t-152.5 20v98q91 1 161 27t109 67.5t58.5 86.5t19.5 92q0 80 -47 141t-119.5 91t-155.5 30q-147 0 -289 -94v100q123 90 295 90q193 0 304.5 -103.5t111.5 -248.5 q0 -230 -252 -322q24 -8 38 -13.5t46 -21.5t52.5 -32t48 -45t43.5 -62t28 -81t12 -103q0 -86 -28 -156t-71.5 -114.5t-99.5 -75t-110 -43t-106 -12.5q-65 0 -155 15.5t-169 53.5z" />
<glyph unicode="4" d="M29 539v34l702 842h39v-792h195v-84h-195v-539h-104v539h-637zM174 623h492v589z" />
<glyph unicode="5" d="M84 74v119q196 -115 338 -115q89 0 165 38t126.5 119t50.5 191q0 82 -26.5 146.5t-65.5 101.5t-91 60.5t-96 31.5t-86 8q-63 0 -196 -26v649h588v-94h-494v-445q62 8 111 8q106 0 189.5 -28.5t134 -72.5t83 -103t45 -115t12.5 -113q0 -188 -126 -320t-326 -132 q-155 0 -336 92z" />
<glyph unicode="6" d="M125 473q0 172 65 335.5t183 299.5q40 49 131.5 138t202.5 169l61 -74q-39 -27 -86.5 -64.5t-121 -109t-133.5 -146.5t-111.5 -176t-67.5 -198q149 109 309 109q56 0 111 -15t105.5 -46.5t89.5 -75.5t62 -107t23 -137q0 -173 -112.5 -283t-284.5 -110q-91 0 -168 31.5 t-135 92t-90.5 154.5t-32.5 213zM225 444q0 -38 7.5 -81t29.5 -95t56 -92.5t93 -68t134 -27.5q133 0 216 83t83 197q0 35 -9.5 73.5t-33 79t-57 72t-86 52t-115.5 20.5q-166 0 -314 -131q0 -4 -2 -34.5t-2 -47.5z" />
<glyph unicode="7" d="M59 1300v97h914l-639 -1415l-90 38l577 1280h-762z" />
<glyph unicode="8" d="M115 373q0 157 106 276q43 45 103 78q-183 124 -183 315q0 92 45.5 177t132 140.5t191.5 55.5q154 0 263.5 -109.5t109.5 -261.5q0 -137 -90 -241q-38 -43 -88 -76q206 -124 206 -346q0 -168 -114 -283.5t-281 -115.5q-166 0 -283.5 112.5t-117.5 278.5zM219 377 q0 -123 87 -207t210 -84q127 0 208 85.5t81 215.5q0 123 -87.5 204t-207.5 81q-121 0 -206 -86t-85 -209zM242 1042q0 -115 78.5 -191.5t193.5 -76.5q117 0 191.5 78.5t74.5 194.5q0 113 -78.5 189.5t-193.5 76.5q-112 0 -189 -80t-77 -191z" />
<glyph unicode="9" d="M66 1026q0 104 45 191.5t136 142.5t212 55q194 0 312 -127t118 -362q0 -104 -24.5 -204.5t-59.5 -178.5t-92.5 -158t-104 -132t-115.5 -112.5t-105 -88.5t-93 -70l-57 75q53 41 83 64.5t87.5 73.5t93.5 88t84.5 96t79 111.5t57.5 121t39 136.5q-35 -21 -54 -31.5t-64 -31 t-92.5 -30.5t-96.5 -10q-69 0 -136.5 24t-124.5 69.5t-92.5 120.5t-35.5 167zM172 1032q0 -120 81 -204.5t204 -84.5q178 0 323 129q5 54 1 120.5t-25 129.5q-31 89 -106.5 145t-184.5 56q-130 0 -211.5 -85.5t-81.5 -205.5z" />
<glyph unicode=":" horiz-adv-x="362" d="M115 0v199h133v-199h-133zM115 721v199h133v-199h-133z" />
<glyph unicode=";" horiz-adv-x="362" d="M115 0v195h133v-119q0 -220 -133 -316v70q14 27 19.5 39t14.5 50t9 81h-43zM115 723v197h133v-197h-133z" />
<glyph unicode="&#x3c;" horiz-adv-x="1351" d="M139 655v84l1073 455v-100l-950 -396l950 -393v-100z" />
<glyph unicode="=" horiz-adv-x="1351" d="M139 412v92h1073v-92h-1073zM139 893v94h1073v-94h-1073z" />
<glyph unicode="&#x3e;" horiz-adv-x="1351" d="M139 205v100l951 395l-951 392v102l1073 -453v-82z" />
<glyph unicode="?" horiz-adv-x="575" d="M51 1219l47 159q76 37 140 37q115 0 185.5 -80t70.5 -211q0 -76 -29 -156.5t-70 -140.5q-111 -164 -138.5 -216.5t-27.5 -114.5q0 -24 5.5 -46.5t11.5 -36t22 -46.5l-37 -29q-79 93 -79 188q0 67 24.5 121.5t108.5 188.5q104 169 104 301q0 75 -43 132.5t-110 57.5 q-97 0 -164 -108h-21zM174 0v201h133v-201h-133z" />
<glyph unicode="@" horiz-adv-x="1642" d="M-2 535q0 134 33 260.5t103.5 239.5t171 197t245.5 133.5t317 49.5q123 0 228 -26.5t179.5 -71t134 -105.5t97 -126.5t62 -137.5t34 -135t9.5 -123q0 -124 -35 -235t-90.5 -188.5t-124.5 -134.5t-137.5 -84.5t-128.5 -27.5q-121 0 -121 105q0 42 8 82 q-157 -187 -342 -187q-152 0 -249 121.5t-97 302.5q0 109 37.5 218.5t102.5 198t162.5 143.5t207.5 55q56 0 105.5 -16.5t79.5 -36t58.5 -52t38 -47.5t23.5 -39l35 166h125l-170 -803q-13 -76 -13 -79q0 -17 14 -28t34 -11q42 0 93 24.5t104 74.5t96.5 116.5t71.5 161 t28 198.5q0 41 -5 87t-22.5 111.5t-46 124.5t-80 120t-118.5 104.5t-169 71.5t-225 28q-144 0 -269.5 -42t-218 -116.5t-159 -175t-100 -220t-33.5 -249.5t33.5 -247t100 -214t160 -167.5t220 -110t274.5 -39.5q87 0 167 13.5t137.5 31.5t114.5 50.5t89.5 55.5t71.5 62 t52.5 55t39.5 48h103q-30 -46 -51 -75t-69.5 -77t-107.5 -88q-110 -74 -251.5 -115t-297.5 -41q-260 0 -458.5 109.5t-305 304.5t-106.5 447zM422 436q0 -85 29 -157t88.5 -118t138.5 -46q84 0 159.5 60.5t131.5 164.5q41 74 67.5 171.5t26.5 176.5q0 124 -72.5 204.5 t-183.5 80.5q-75 0 -139.5 -36.5t-108.5 -94.5t-76 -130t-46.5 -143t-14.5 -133z" />
<glyph unicode="A" horiz-adv-x="1366" d="M8 0l641 1407h64l645 -1407h-113l-221 483h-682l-221 -483h-113zM381 575h600l-299 656z" />
<glyph unicode="B" horiz-adv-x="1087" d="M164 0v1397h217q130 0 200.5 -8.5t133.5 -36.5q93 -38 149 -124.5t56 -191.5q0 -55 -15.5 -103.5t-35 -79t-51 -58.5t-49 -39.5t-43.5 -26.5q-5 -3 -7 -4q76 -16 134 -45.5t93 -64t57.5 -77.5t30.5 -82.5t8 -82.5q0 -96 -39 -168t-98 -111q-90 -58 -168.5 -76t-208.5 -18 h-364zM272 90h242q26 0 42 0.5t51 3t60 7t60.5 14.5t60.5 24t52.5 36t44.5 49.5t28 66t11 84.5q0 122 -86 196q-54 50 -134.5 69t-238.5 19h-193v-569zM272 750h131q28 0 44.5 0.5t52 2.5t59 7t58 14.5t58 23t50 34.5t42 48t26 65t10.5 83q0 70 -29 129.5t-80 89.5 q-97 58 -317 58h-105v-555z" />
<glyph unicode="C" horiz-adv-x="1388" d="M78 696q0 116 31.5 218.5t85.5 180t125.5 139.5t153.5 101t166.5 59.5t166.5 20.5q243 0 496 -117v-118q-58 29 -94 45.5t-101.5 40.5t-135.5 35.5t-145 11.5q-138 0 -255 -46.5t-198.5 -127.5t-127 -195t-45.5 -246q0 -178 80 -318t221.5 -217t318.5 -77q79 0 156.5 14 t150 42t104.5 42.5t85 40.5v-112q-246 -131 -496 -131q-145 0 -278 49.5t-237 138.5t-166 226t-62 300z" />
<glyph unicode="D" horiz-adv-x="1492" d="M164 0v1397h424q98 0 145 -1.5t115.5 -10t123.5 -28.5t115 -54q159 -92 243.5 -250.5t84.5 -347.5q0 -114 -32 -226t-108.5 -218.5t-187.5 -164.5q-67 -35 -122.5 -55.5t-122 -29t-112 -10t-142.5 -1.5h-424zM272 88h328q140 0 228 16.5t198 79.5q124 72 196 214t72 304 q0 65 -13 129.5t-42 133t-83.5 132t-129.5 111.5q-100 64 -187 81.5t-239 17.5h-328v-1219z" />
<glyph unicode="E" horiz-adv-x="1028" d="M164 0v1397h762v-90h-654v-557h637v-91h-637v-571h670v-88h-778z" />
<glyph unicode="F" horiz-adv-x="921" d="M164 0v1397h717v-90h-611v-531h551v-90h-551v-686h-106z" />
<glyph unicode="G" horiz-adv-x="1435" d="M78 702q0 148 55.5 279.5t153 227t237.5 151t303 55.5q75 0 144 -10t137 -32.5t102 -36t97 -40.5v-122q-222 139 -500 139q-116 0 -224 -42t-194 -118.5t-138 -195.5t-52 -261q0 -139 52 -257t137.5 -195.5t193 -120.5t221.5 -43q198 0 422 88v377h-295v92h403v-537 q-258 -118 -526 -118q-108 0 -214 32t-198.5 95t-163.5 149t-112 201t-41 243z" />
<glyph unicode="H" horiz-adv-x="1476" d="M164 0v1397h106v-643h934v643h109v-1397h-109v662h-934v-662h-106z" />
<glyph unicode="I" horiz-adv-x="438" d="M164 0v1397h110v-1397h-110z" />
<glyph unicode="J" horiz-adv-x="425" d="M-92 -301q28 -8 51 -8q43 0 76.5 13t55.5 31t37 49.5t23 57.5t12 66.5t4.5 64t0.5 62.5v1362h111v-1374q0 -50 -2.5 -87.5t-13 -91t-29.5 -92.5t-56 -77t-88 -60q-29 -12 -54 -15t-116 -8z" />
<glyph unicode="K" horiz-adv-x="1132" d="M164 0v1397h106v-697l672 697h135l-665 -697l731 -700h-139l-734 700v-700h-106z" />
<glyph unicode="L" horiz-adv-x="962" d="M164 0v1397h106v-1309h693v-88h-799z" />
<glyph unicode="M" horiz-adv-x="1605" d="M164 0v1397h106l533 -649l530 649h109v-1397h-109v1239l-530 -653l-533 653v-1239h-106z" />
<glyph unicode="N" horiz-adv-x="1587" d="M164 0v1397h100l1051 -1221v1221h108v-1397h-90l-1061 1229v-1229h-108z" />
<glyph unicode="O" horiz-adv-x="1636" d="M78 700q0 142 53.5 271.5t148 228t235 157t304.5 58.5q162 0 302 -58t235 -155.5t149 -226.5t54 -270q0 -154 -59 -289.5t-159.5 -230t-236.5 -149t-287 -54.5q-206 0 -375.5 95.5t-266.5 260t-97 362.5zM201 696q0 -164 78 -304t219.5 -224t316.5 -84q121 0 233 44 t199 123t139 197t52 257q0 119 -45.5 229t-125.5 193.5t-196.5 133.5t-249.5 50q-175 0 -317.5 -82t-222.5 -223t-80 -310z" />
<glyph unicode="P" horiz-adv-x="1032" d="M164 0v1397h282q160 0 236 -10.5t145 -49.5q82 -45 128 -124.5t46 -182.5q0 -107 -50 -193.5t-130 -125.5q-83 -38 -155 -48t-205 -10h-191v-653h-106zM270 743h197q113 0 183.5 12.5t129.5 49.5q46 30 73.5 92.5t27.5 128.5t-27 125t-76 94q-48 33 -118 48.5t-209 15.5 h-181v-566z" />
<glyph unicode="Q" horiz-adv-x="1638" d="M78 696q0 143 55 274.5t150.5 229.5t235.5 156.5t300 58.5q163 0 303.5 -57.5t235.5 -155.5t149 -228t54 -274q0 -195 -95.5 -358t-253.5 -256q-128 -75 -311 -100q85 -57 165.5 -95t139.5 -52t86.5 -17.5t48.5 -3.5q65 0 136 51l24 -21l-123 -141q-202 26 -358 100 q-1 1 -18.5 9.5t-35.5 18.5t-47 27t-56.5 34.5t-59.5 41.5t-60 48q-195 17 -348.5 120t-235 258.5t-81.5 331.5zM199 698q0 -161 77.5 -301t220 -226.5t318.5 -86.5q120 0 232.5 44.5t199.5 122.5t140 195t53 252q0 129 -48 244t-130.5 197t-197.5 130t-243 48 q-169 0 -312.5 -82.5t-226.5 -225t-83 -311.5z" />
<glyph unicode="R" horiz-adv-x="1202" d="M164 0v1397h276q129 0 199 -8t135 -33q89 -36 150 -121.5t61 -198.5q0 -243 -266 -340q58 -37 123 -126.5t315 -473.5l66 -96h-129l-269 422q-37 59 -85.5 118.5t-86.5 86.5q-29 20 -67.5 30t-69 11.5t-94.5 1.5h-150v-670h-108zM272 762h150q125 0 191.5 9t121.5 36 q56 27 91.5 91.5t35.5 137.5q0 72 -35.5 134.5t-93.5 91.5q-88 45 -284 45h-177v-545z" />
<glyph unicode="S" horiz-adv-x="942" d="M96 1047q0 70 29 136t79.5 117.5t126 83t161.5 31.5q165 0 325 -88v-119q-100 58 -167.5 84.5t-147.5 26.5q-72 0 -130.5 -25t-93 -65t-53 -86t-18.5 -92q0 -37 10 -69.5t24 -56t40.5 -45.5t48.5 -36.5t60 -31t61.5 -25t66.5 -23.5q58 -21 101.5 -40.5t94.5 -53.5 t83.5 -74t54.5 -99t22 -130q0 -89 -35.5 -163.5t-94 -122t-130 -73.5t-145.5 -26q-178 0 -358 122v127q104 -74 184.5 -110.5t169.5 -36.5q72 0 130.5 25.5t94 66.5t54 89t18.5 97q0 54 -20 99.5t-48 75.5t-71 56t-75 39t-73 27q-86 29 -141 54t-72.5 37t-38.5 30 q-127 108 -127 267z" />
<glyph unicode="T" horiz-adv-x="1173" d="M8 1307v90h1157v-90h-522v-1307h-111v1307h-524z" />
<glyph unicode="U" horiz-adv-x="1429" d="M131 692v705h107v-725q0 -240 75 -369q56 -96 156.5 -158.5t243.5 -62.5q128 0 239 57.5t162 159.5q45 87 61.5 174t16.5 199v725h106v-705q0 -165 -19 -265.5t-79 -193.5q-69 -108 -191 -179.5t-288 -71.5q-94 0 -183.5 24t-173 81.5t-131.5 141.5q-48 82 -71 163 t-27 137.5t-4 162.5z" />
<glyph unicode="V" horiz-adv-x="1216" d="M4 1397h111l495 -1182l492 1182h108l-583 -1407h-35z" />
<glyph unicode="W" horiz-adv-x="2111" d="M-2 1397h111l462 -1159l467 1159h35l465 -1159l467 1159h109l-558 -1407h-32l-469 1175l-465 -1175h-33z" />
<glyph unicode="X" horiz-adv-x="1406" d="M0 0l637 715l-604 682h135l537 -602l536 602h133l-600 -682l635 -715h-139l-565 639l-568 -639h-137z" />
<glyph unicode="Y" horiz-adv-x="1196" d="M0 1397h131l465 -553l467 553h133l-547 -647v-750h-108v750z" />
<glyph unicode="Z" horiz-adv-x="1300" d="M18 0v31l1049 1278h-1001v88h1177v-37l-1046 -1272h1054v-88h-1233z" />
<glyph unicode="[" horiz-adv-x="618" d="M141 -453v1850h463v-99h-362v-1654h362v-97h-463z" />
<glyph unicode="\" horiz-adv-x="575" d="M16 1415h95l450 -1433h-96z" />
<glyph unicode="]" horiz-adv-x="618" d="M14 -356h363v1654h-363v99h463v-1850h-463v97z" />
<glyph unicode="^" horiz-adv-x="1343" d="M225 879l447 536l448 -536l-65 -54l-383 461l-385 -461z" />
<glyph unicode="_" d="M-12 -154h1048v-102h-1048v102z" />
<glyph unicode="`" horiz-adv-x="681" d="M-4 1386h166l215 -319h-70z" />
<glyph unicode="a" horiz-adv-x="851" d="M55 213q0 62 24 113t60 84.5t89 59.5t100 40t104.5 23.5t91 12.5t70.5 5v117q0 182 -203 182q-78 0 -140 -26t-142 -85v101q47 28 73.5 42.5t92 35t128.5 20.5q64 0 129.5 -20.5t102.5 -61.5t47 -84t10 -131v-471q0 -76 2 -82q5 -10 19 -10q19 0 61 28t72 54v-82 q-135 -96 -184 -96q-39 0 -51 25.5t-17 88.5q-145 -114 -289 -114q-102 0 -176 67t-74 164zM156 213q0 -74 58.5 -113t123.5 -39q125 0 256 121v289q-171 -6 -252 -39q-79 -32 -132.5 -87t-53.5 -132z" />
<glyph unicode="b" horiz-adv-x="1040" d="M127 51v1346h98v-609q38 34 61.5 52t68 45t95 40t107.5 13q61 0 119 -17t111 -53t93 -88t63.5 -127t23.5 -164q0 -229 -139.5 -368t-374.5 -139q-158 0 -326 69zM225 121q120 -45 228 -45q181 0 295 115t114 288q0 94 -35.5 177.5t-109.5 139.5t-172 56q-56 0 -107.5 -17 t-94 -48.5t-66 -54t-52.5 -54.5v-557z" />
<glyph unicode="c" horiz-adv-x="837" d="M78 446q0 120 38.5 216.5t102.5 155.5t141.5 89.5t161.5 30.5q104 0 246 -45v-109q-47 21 -71.5 30.5t-73.5 20.5t-97 11q-85 0 -152.5 -33.5t-108.5 -90t-62 -124.5t-21 -141q0 -74 20.5 -140.5t61.5 -122t111 -88t162 -32.5q117 0 247 57v-102q-143 -47 -262 -47 q-57 0 -115 14t-118 48t-106 85t-75.5 133t-29.5 184z" />
<glyph unicode="d" horiz-adv-x="1034" d="M74 461q0 210 134 343.5t331 133.5q58 0 113.5 -13t86.5 -26t72 -35v533h98v-1397h-98v72q-36 -25 -64.5 -41t-86 -32.5t-121.5 -16.5q-89 0 -172.5 33.5t-148.5 94t-104.5 152t-39.5 199.5zM182 467q0 -175 112.5 -284t268.5 -109q58 0 109.5 15.5t78.5 31.5t60 41v594 q-40 26 -65 40t-83.5 32t-119.5 18q-164 0 -262.5 -110t-98.5 -269z" />
<glyph unicode="e" horiz-adv-x="976" d="M74 471q0 124 49.5 229t147.5 171.5t225 66.5q73 0 136.5 -21.5t107.5 -57.5t74.5 -76t49.5 -85q35 -79 39 -202h-721v-24q0 -90 27 -164q31 -84 84.5 -133.5t117.5 -75t132 -25.5q62 0 118 14t101.5 40t70 44t54.5 43v-111q-154 -122 -355 -122q-109 0 -198 41.5 t-144.5 111t-85.5 156t-30 180.5zM193 573h593q-18 90 -55 148q-36 60 -98 94.5t-137 34.5q-102 0 -190 -72t-113 -205z" />
<glyph unicode="f" horiz-adv-x="598" d="M23 838v82h170v114q0 75 15 136t38 99.5t55 67.5t61 43.5t62 23t52 10t36 1.5q34 0 68.5 -7t50.5 -13t49 -19v-92q-105 33 -164 33q-56 0 -97.5 -16.5t-65.5 -42.5t-38.5 -65t-19 -76t-4.5 -83v-114h178v-82h-178v-838h-98v838h-170z" />
<glyph unicode="g" horiz-adv-x="854" d="M16 -225q0 23 5.5 45.5t23 51.5t45.5 52.5t78.5 44t116.5 31.5q-150 39 -150 133q0 31 12.5 54t42.5 41.5t54.5 28.5t74.5 28q-22 8 -35 13.5t-41.5 19.5t-47 28.5t-42.5 39t-38 52t-24.5 66.5t-10.5 84q0 93 45 172t119 112q46 22 95 33t81.5 13t89.5 2h324v-82h-209 q26 -25 39.5 -40t38.5 -48.5t37 -74t12 -87.5q0 -12 -0.5 -23.5t-6 -38.5t-14.5 -50t-28.5 -54t-46.5 -55.5t-70 -48t-97 -37.5q-133 -36 -170.5 -48.5t-58.5 -29.5q-33 -26 -33 -64q0 -31 21.5 -51.5t61 -29t68.5 -11.5t71 -4q105 -3 159 -12t109 -39q49 -26 81.5 -78.5 t32.5 -116.5q0 -124 -107 -196t-304 -72q-82 0 -149 13t-108 32t-71 46t-44 49.5t-22 48.5t-9 36.5t-1 20.5zM109 -221q0 -34 15.5 -62t37.5 -45t55.5 -29.5t60.5 -18.5t62 -9t50.5 -3.5t35.5 -0.5q157 0 235 52.5t78 125.5q0 33 -13 59.5t-31.5 43.5t-48 29t-53 17.5 t-57.5 8.5t-50.5 3.5t-41.5 0.5q-93 0 -144 -9t-97 -32q-21 -9 -39 -22.5t-36.5 -43t-18.5 -65.5zM166 594q0 -101 71.5 -173.5t172.5 -72.5t173 72.5t72 173.5t-72.5 172.5t-172.5 71.5t-172 -71.5t-72 -172.5z" />
<glyph unicode="h" horiz-adv-x="1003" d="M129 0v1397h96v-645q16 25 27.5 42t40 47t58.5 48.5t77.5 33.5t101.5 15q90 0 171 -39.5t120 -116.5q36 -72 44.5 -130t8.5 -177v-475h-100v483q0 87 -7.5 136t-31.5 94q-28 56 -83 92.5t-136 36.5q-117 0 -201 -76q-29 -25 -47.5 -53t-42.5 -78v-635h-96z" />
<glyph unicode="i" horiz-adv-x="382" d="M143 0v920h97v-920h-97zM143 1229v168h97v-168h-97z" />
<glyph unicode="j" horiz-adv-x="374" d="M-61 -389q33 3 60 11.5t46.5 18.5t34.5 29.5t25 34.5t16.5 44t10 47t5.5 55t2 56.5v61.5v951h99v-957q0 -50 -2 -88t-8.5 -84t-18 -80t-32 -68t-48.5 -56.5t-69 -38t-93 -19.5zM139 1229v168h99v-168h-99z" />
<glyph unicode="k" horiz-adv-x="901" d="M121 0v1397h98v-1397h-98zM233 483l508 437h129l-499 -437l583 -483h-141z" />
<glyph unicode="l" horiz-adv-x="385" d="M143 0v1397h99v-1397h-99z" />
<glyph unicode="m" horiz-adv-x="1579" d="M123 0v920h96v-162q17 26 30 43t42 46t58 46.5t74 31t95 13.5t93 -11.5t73.5 -33.5t52 -42.5t38.5 -50.5t24 -45t16 -38q72 121 150 171t172 50q83 0 154 -38.5t106 -102.5q39 -72 49 -131.5t10 -171.5v-494h-98v485q0 163 -43 242q-29 51 -82 84t-113 33 q-28 0 -61.5 -10t-73.5 -32t-79.5 -67.5t-67.5 -107.5v-627h-99v471q0 124 -13 179t-40 95q-32 45 -81.5 72t-108.5 27q-44 0 -85 -15.5t-67.5 -34t-55 -52t-39.5 -50t-30 -47.5v-645h-96z" />
<glyph unicode="n" horiz-adv-x="1003" d="M127 0v920h98v-160q17 23 21.5 29t25.5 31t34 35.5t39.5 30t51 28.5t58.5 16.5t71 7.5q81 0 157.5 -34t117.5 -95q44 -65 58.5 -137.5t14.5 -173.5v-498h-98v489q0 99 -14 154.5t-43 95.5q-33 47 -87.5 76t-117.5 29q-122 0 -223 -101q-37 -41 -66 -98v-645h-98z" />
<glyph unicode="o" horiz-adv-x="1083" d="M74 459q0 130 55 238t163.5 174.5t250.5 66.5q140 0 247.5 -65.5t163.5 -173.5t56 -240q0 -144 -67.5 -255t-172.5 -166.5t-227 -55.5t-227.5 55.5t-173.5 166.5t-68 255zM180 461q0 -171 105 -280t258 -109t257.5 109t104.5 280q0 91 -32 166t-84 121.5t-115.5 72 t-130.5 25.5q-65 0 -128 -24.5t-116 -70.5t-86 -121.5t-33 -168.5z" />
<glyph unicode="p" horiz-adv-x="1032" d="M129 -471v1391h98v-52q43 20 70.5 31.5t88 25t122.5 13.5q192 0 321 -134t129 -341q0 -112 -41 -205.5t-107 -152.5t-146 -91t-162 -32q-134 0 -275 69v-522h-98zM227 147q37 -21 62.5 -33t80.5 -26t113 -14q87 0 158 30.5t116 83t69 121t24 146.5q0 120 -54.5 210.5 t-139.5 134.5t-187 44q-52 0 -100.5 -12t-74.5 -24t-67 -34v-627z" />
<glyph unicode="q" horiz-adv-x="1042" d="M74 442q0 109 36.5 203t98.5 157.5t144.5 99.5t172.5 36q64 0 125 -15t92 -29.5t72 -37.5v64h98v-1391h-98v524q-155 -71 -305 -71q-82 0 -158.5 29t-139 84t-100.5 145t-38 202zM180 436q0 -43 8.5 -87.5t33.5 -96t63 -90t102.5 -64.5t147.5 -26q63 0 123.5 15.5 t86.5 28t70 36.5v608q-130 86 -268 86q-71 0 -131.5 -24t-103 -64.5t-73 -93.5t-45 -111t-14.5 -117z" />
<glyph unicode="r" horiz-adv-x="763" d="M129 0v920h98v-242q172 260 328 260q39 0 84 -21.5t67 -38.5t58 -49l-57 -92q-34 30 -55 46.5t-59 35.5t-69 19q-73 0 -151 -74t-146 -186v-578h-98z" />
<glyph unicode="s" horiz-adv-x="712" d="M72 66v96q50 -26 78 -39.5t90 -31t118 -17.5q90 0 140.5 45t50.5 108q0 24 -7 44.5t-15.5 35.5t-30 31.5t-36 26t-49 24.5t-53 22.5t-63.5 24.5q-29 11 -46.5 19t-54 30.5t-58.5 46.5t-40 64.5t-18 87.5q0 44 18.5 87.5t54 81.5t94 61.5t130.5 23.5q114 0 246 -78v-106 q-135 94 -252 94q-89 0 -144 -47.5t-55 -108.5q0 -30 15 -57t35 -44.5t54 -35t56.5 -26.5t58.5 -21q28 -10 41.5 -15.5t45.5 -20.5t50.5 -27.5t44.5 -35t40.5 -46.5t25 -57t10.5 -70q0 -100 -81 -177t-218 -77q-138 0 -276 84z" />
<glyph unicode="t" horiz-adv-x="624" d="M-51 838v82h248v219l67 86h31v-305h258v-82h-258v-564q0 -69 2.5 -91t15.5 -44q35 -59 121 -59q71 0 166 43v-94q-101 -47 -190 -47q-62 0 -116 30t-77 80q-14 33 -17 66t-3 116v564h-248z" />
<glyph unicode="u" horiz-adv-x="1003" d="M119 401v519h98v-519q0 -84 7 -132t30 -89q33 -60 91.5 -86t119.5 -26q134 0 233 96q32 34 70 112v644h98v-920h-98v152q-26 -32 -47.5 -54t-61 -52.5t-91.5 -47t-113 -16.5q-85 0 -163.5 39.5t-115.5 105.5q-36 61 -46.5 124t-10.5 150z" />
<glyph unicode="v" horiz-adv-x="874" d="M0 920h100l346 -775l332 775h96l-395 -938h-61z" />
<glyph unicode="w" horiz-adv-x="1449" d="M0 920h96l314 -750l288 750h54l280 -750l320 750h98l-397 -938h-47l-283 747l-285 -747h-45z" />
<glyph unicode="x" horiz-adv-x="980" d="M12 0l420 471l-420 449h127l353 -381l350 381h114l-403 -449l434 -471h-125l-370 406l-369 -406h-111z" />
<glyph unicode="y" horiz-adv-x="841" d="M0 920h100l336 -644l318 644h100l-688 -1391h-100l321 649z" />
<glyph unicode="z" horiz-adv-x="817" d="M20 0v31l609 794h-570v95h729v-37l-604 -791h604v-92h-768z" />
<glyph unicode="{" horiz-adv-x="681" d="M100 397v131q45 1 79.5 17.5t54.5 45.5t33 58.5t18 70.5t6.5 67t1.5 61q0 246 8.5 322t48.5 130q27 35 58 57t65.5 30t57 9.5t55.5 0.5v-113q-44 -1 -69.5 -4.5t-48 -17.5t-33 -33.5t-18 -60.5t-9.5 -90t-2 -130q0 -133 -4 -186t-17 -94q-16 -50 -38 -87t-49.5 -60.5 t-44.5 -34t-44 -23.5q66 -34 92 -58q28 -25 47 -61q39 -72 48.5 -137.5t9.5 -202.5q0 -251 24 -304t156 -60v-111q-166 -3 -229.5 80.5t-63.5 259.5q0 245 -4.5 312.5t-28.5 117.5q-17 34 -36 55t-44 29.5t-38.5 10.5t-41.5 3z" />
<glyph unicode="|" horiz-adv-x="448" d="M172 -471v1886h102v-1886h-102z" />
<glyph unicode="}" horiz-adv-x="681" d="M98 -358q43 1 68.5 4.5t47.5 17t32.5 33t18 60.5t9.5 90t2 130q0 130 5 184t18 97q15 50 36.5 87t49 60t45 34t45.5 24q-30 13 -50 24t-46.5 36t-44.5 59q-39 72 -48.5 137.5t-9.5 202.5q0 252 -24 304t-154 58v113q163 3 228 -80t65 -258q0 -224 1.5 -273t10.5 -96 q7 -38 20.5 -66.5t32 -45.5t33.5 -27.5t37.5 -15t31.5 -5.5t26 -2v-131q-45 -1 -79.5 -17.5t-55 -45.5t-33.5 -59t-18.5 -70.5t-7 -66.5t-1.5 -60q0 -247 -8.5 -323t-48.5 -130q-27 -35 -57.5 -57t-65 -29.5t-56 -9t-55.5 -0.5v113z" />
<glyph unicode="~" horiz-adv-x="1351" d="M139 596v111q162 120 287 120q89 0 270 -86q71 -33 120 -50t69 -20t43 -3q44 0 97 21.5t89 44.5t98 67v-111q-160 -121 -280 -121q-39 0 -87.5 13t-78.5 25.5t-86 37.5q-122 57 -168.5 71.5t-85.5 14.5q-67 0 -126.5 -30.5t-160.5 -104.5z" />
<glyph unicode="&#xa1;" horiz-adv-x="362" d="M117 -453l35 1004h57l20 -336l19 -668h-131zM117 750v194h131v-194h-131z" />
<glyph unicode="&#xa2;" horiz-adv-x="854" d="M86 444q0 103 28 188.5t72.5 142t102.5 95.5t116 56.5t115 17.5q50 0 98 -6l134 373h88l-138 -389q9 -2 70 -25v-109q-65 32 -102 41l-256 -727q80 -22 127 -22q106 0 252 57v-96q-127 -59 -258 -59q-74 0 -154 22l-139 -387h-90l151 424q-29 18 -49 32.5t-55 50.5 t-56.5 75.5t-39 104t-17.5 140.5zM190 459q0 -57 11.5 -106.5t26 -80.5t38.5 -61t36.5 -41.5t33.5 -28.5l254 709q-75 3 -121 -6q-139 -28 -209 -136t-70 -249z" />
<glyph unicode="&#xa3;" horiz-adv-x="1130" d="M193 -10l172 639h-172v96h198q36 117 57.5 181t63.5 157t88 154q150 198 340 198q46 0 98 -18l49 -97q-65 21 -114 21t-94 -14t-80.5 -36t-70 -58.5t-59 -70t-50 -83t-41.5 -85.5t-35 -89.5t-28 -82.5t-23 -77h217v-96h-246l-137 -520q147 14 215 14q64 0 102 -5t164 -28 q35 -6 92 -6q108 0 203 51v-108q-31 -14 -45.5 -20t-59 -15.5t-92.5 -9.5q-52 0 -254 34q-60 9 -137 9q-137 0 -321 -35z" />
<glyph unicode="&#xa4;" horiz-adv-x="1130" d="M94 293l125 127q-19 27 -29 43t-29 53.5t-28.5 84t-9.5 99.5q0 66 18.5 126t35.5 87.5t42 61.5l-125 129l66 67l127 -131q33 23 51 33.5t56.5 30t81.5 28.5t91 9q64 0 124 -20t85.5 -36t65.5 -45l131 131l63 -67l-129 -129q99 -123 99 -277q0 -97 -48 -198 q-5 -12 -12 -24t-12 -19t-14 -19t-13 -18l129 -127l-63 -66l-131 127q-125 -96 -281 -96q-152 0 -274 96l-127 -127zM217 698q0 -143 102 -244.5t246 -101.5q143 0 244.5 102t101.5 244q0 145 -102 245.5t-244 100.5q-144 0 -246 -100.5t-102 -245.5z" />
<glyph unicode="&#xa5;" horiz-adv-x="1130" d="M0 1466h147l424 -729l418 729h141l-430 -729h367v-92h-422l-12 -22v-136h434v-92h-434v-395h-131v395h-439v92h439v136l-13 22h-426v92h371z" />
<glyph unicode="&#xa6;" horiz-adv-x="448" d="M172 281h102v-752h-102v752zM172 664v751h102v-751h-102z" />
<glyph unicode="&#xa7;" horiz-adv-x="811" d="M53 571q0 87 44.5 165t127.5 161q-30 38 -48 65.5t-36 78.5t-18 104q0 125 83.5 197.5t207.5 72.5q47 0 86.5 -10t66 -24.5t48.5 -37.5t33.5 -41t21.5 -44t13 -37.5t7 -30.5h-104q-8 38 -28 65.5t-40 40.5t-46.5 20t-38 8t-23.5 1q-86 0 -137.5 -55t-51.5 -117 q0 -49 16 -90.5t74 -109t166 -158.5q159 -135 220 -230.5t61 -189.5q0 -53 -15 -102t-46 -94t-52 -70.5t-59 -65.5q100 -116 100 -244q0 -74 -28.5 -129t-74 -84t-93 -43t-95.5 -14q-129 0 -205 76q-24 24 -38.5 52t-18.5 45t-10 48h102q27 -131 172 -131q93 0 142 55.5 t49 124.5t-53 143t-181 187q-50 44 -72 63.5t-62 58.5t-58 61t-44 57.5t-36.5 63.5t-19.5 64.5t-9 73.5zM154 573q0 -77 41 -139.5t133 -146.5q13 -13 96.5 -87.5t99.5 -90.5q135 132 135 258q0 46 -19 95t-52 87q-26 28 -168 168q-112 98 -131 117q-26 -25 -43 -44.5 t-41.5 -54t-37.5 -76t-13 -86.5z" />
<glyph unicode="&#xa8;" horiz-adv-x="681" d="M70 1214q0 37 25.5 63t62.5 26t62.5 -26t25.5 -63t-25.5 -63.5t-62.5 -26.5t-62.5 26.5t-25.5 63.5zM436 1214q0 36 26 62.5t62 26.5q37 0 63.5 -26t26.5 -63t-26.5 -63.5t-63.5 -26.5q-35 0 -61.5 26.5t-26.5 63.5z" />
<glyph unicode="&#xa9;" horiz-adv-x="1642" d="M57 651q0 157 61 299t164 244t244 161.5t295 59.5t295 -60t244 -162t164 -243.5t61 -298.5q0 -155 -60.5 -296t-163 -243.5t-244 -163.5t-296.5 -61t-296.5 60.5t-244 163t-163 244t-60.5 296.5zM152 651q0 -136 53 -260t142 -213.5t213 -142.5t261 -53q109 0 212 34 t185.5 96t144.5 144t96 184t34 211q0 184 -91 339t-245.5 244t-335.5 89q-135 0 -259 -52.5t-213.5 -142t-143 -214.5t-53.5 -263zM442 653q0 75 24 147t70 133t122.5 98.5t172.5 37.5q104 0 183 -52t139 -169l-96 -27q-73 166 -226 166q-27 0 -58 -6.5t-72 -27.5t-73 -55 t-54.5 -96t-22.5 -143q0 -168 79 -261t191 -93q48 0 88 15.5t63.5 34t46 52t30.5 52t22 51.5l90 -33q-16 -44 -23.5 -62.5t-32.5 -56.5t-58 -65q-45 -38 -105.5 -58t-116.5 -20q-90 0 -164.5 38.5t-121 101.5t-72 140t-25.5 158z" />
<glyph unicode="&#xaa;" horiz-adv-x="575" d="M43 983q0 51 31 90.5t72 59.5t95.5 33t86 16t59.5 4v63q0 103 -117 103q-51 0 -90 -17t-104 -61v80q109 61 203 61q111 0 167 -61q27 -34 27 -119v-279q0 -38 16 -38q15 0 84 53v-74q-59 -35 -85 -47t-48 -12q-48 0 -53 59l-9 -6q-9 -6 -12 -7.5t-13 -7t-15 -8t-16 -7.5 t-18.5 -7.5t-19.5 -6t-22 -5t-22.5 -3t-24.5 -1.5q-71 0 -121.5 42t-50.5 103zM131 981q0 -38 30.5 -60t74.5 -22q71 0 151 66v161q-75 -2 -129 -17t-79.5 -38t-36.5 -45t-11 -45z" />
<glyph unicode="&#xab;" d="M39 473l387 459h123l-385 -459l385 -459h-123zM477 473l387 459h121l-387 -459l387 -459h-121z" />
<glyph unicode="&#xac;" horiz-adv-x="1351" d="M139 893v94h1073v-575h-94v481h-979z" />
<glyph unicode="&#xad;" horiz-adv-x="638" d="M78 414v96h485v-96h-485z" />
<glyph unicode="&#xae;" horiz-adv-x="1642" d="M57 651q0 157 61 299t164 244t244 161.5t295 59.5t295 -60t244 -162t164 -243.5t61 -298.5q0 -155 -60.5 -296t-163 -243.5t-244 -163.5t-296.5 -61t-296.5 60.5t-244 163t-163 244t-60.5 296.5zM152 651q0 -136 53 -260t142 -213.5t213 -142.5t261 -53q109 0 212 34 t185.5 96t144.5 144t96 184t34 211q0 184 -91 339t-245.5 244t-335.5 89q-135 0 -259 -52.5t-213.5 -142t-143 -214.5t-53.5 -263zM512 242v805h334q75 0 130.5 -20.5t81.5 -46.5t41 -61.5t17 -53t2 -34.5q0 -57 -27 -106.5t-73 -77.5q-42 -27 -137 -43q38 -14 59 -25.5 t45 -33t46.5 -60.5t50 -94.5t67.5 -148.5h-121q-38 84 -60.5 130t-50.5 91.5t-49.5 65t-54 36.5t-67.5 21t-87 4h-47v-348h-100zM612 674h133q58 0 97.5 4.5t79 19t59.5 46t20 79.5q0 38 -12.5 65t-32 42t-53 23t-64 10t-77.5 2h-150v-291z" />
<glyph unicode="&#xaf;" horiz-adv-x="681" d="M68 1171v105h546v-105h-546z" />
<glyph unicode="&#xb0;" horiz-adv-x="811" d="M119 1128q0 119 83.5 203t203.5 84t203 -84t83 -203t-83 -202.5t-203 -83.5q-121 0 -204 84t-83 202zM201 1128q0 -84 59.5 -143t145.5 -59q85 0 144.5 58.5t59.5 143.5q0 86 -59.5 145.5t-144.5 59.5q-86 0 -145.5 -60t-59.5 -145z" />
<glyph unicode="&#xb1;" horiz-adv-x="1351" d="M139 -23v93h1073v-93h-1073zM139 651v94h490v490h94v-490h489v-94h-489v-489h-94v489h-490z" />
<glyph unicode="&#xb2;" horiz-adv-x="661" d="M57 559q37 30 75 63.5t99.5 95.5t106.5 119.5t79 126t34 123.5q0 65 -53.5 105.5t-121.5 40.5q-37 0 -72 -13.5t-57.5 -28.5t-68.5 -50v84q104 69 205 69q112 0 183 -63.5t71 -145.5q0 -45 -18.5 -95t-41.5 -89t-70.5 -96t-77 -88.5t-89.5 -93.5h376v-64h-559z" />
<glyph unicode="&#xb3;" horiz-adv-x="641" d="M59 588v65q104 -43 195 -43q81 0 131.5 39.5t50.5 108.5q0 82 -61 117.5t-154 33.5v64q61 0 104.5 14t63.5 36.5t28.5 42t8.5 38.5q0 62 -54 95.5t-122 33.5q-87 0 -182 -59v69q73 51 186 51q115 0 185.5 -53.5t70.5 -132.5q0 -115 -139 -164q149 -49 149 -184 q0 -54 -25.5 -96.5t-65 -66.5t-82.5 -36t-85 -12q-112 0 -203 39z" />
<glyph unicode="&#xb4;" horiz-adv-x="681" d="M307 1067l213 319h166l-311 -319h-68z" />
<glyph unicode="&#xb5;" horiz-adv-x="1050" d="M127 -471v1391h100v-637q24 -44 49 -77t60 -65t80.5 -49.5t99.5 -17.5q53 0 96 15.5t69.5 38.5t46 57.5t28.5 63t14 66t5.5 54.5t0.5 41v510h98v-775q0 -59 35 -59q39 0 117 43v-88q-43 -25 -98 -42t-82 -17q-70 0 -70 94v61q-98 -155 -252 -155q-69 0 -128.5 28.5 t-93 61.5t-75.5 86v-629h-100z" />
<glyph unicode="&#xb6;" horiz-adv-x="1323" d="M96 977q0 186 126 303t353 117h693v-137h-197v-1735h-129v1735h-266v-1735h-129v1030q-91 0 -165 21t-121.5 58t-81.5 80.5t-51 94t-24.5 90.5t-7.5 78z" />
<glyph unicode="&#xb7;" horiz-adv-x="575" d="M178 707q0 45 32 77.5t79 32.5q45 0 76.5 -31.5t31.5 -78.5q0 -45 -32.5 -77t-75.5 -32q-46 0 -78.5 32.5t-32.5 76.5z" />
<glyph unicode="&#xb8;" horiz-adv-x="681" d="M217 -348l10 65q40 -4 64 -4q137 0 137 80q0 18 -6 32t-20 22t-23.5 13.5t-29.5 8t-25.5 3t-22.5 1.5l45 143h60l-25 -88q21 -6 31 -9t31.5 -14t33 -23t21.5 -34t10 -49q0 -66 -52 -111.5t-151 -45.5q-25 0 -88 10z" />
<glyph unicode="&#xb9;" horiz-adv-x="638" d="M276 559v727h86v-727h-86z" />
<glyph unicode="&#xba;" horiz-adv-x="724" d="M51 1128q0 126 88 206.5t223 80.5q75 0 136.5 -25.5t98.5 -67t57 -90t20 -97.5q0 -73 -27.5 -131.5t-73 -93.5t-101 -53.5t-114.5 -18.5q-132 0 -219.5 81.5t-87.5 208.5zM143 1128q0 -105 62.5 -164t154.5 -59q96 0 160 62t64 161q0 97 -65.5 158.5t-158.5 61.5 q-86 0 -151.5 -57.5t-65.5 -162.5z" />
<glyph unicode="&#xbb;" d="M39 14l387 459l-387 459h121l387 -459l-387 -459h-121zM475 14l385 459l-385 459h123l387 -459l-387 -459h-123z" />
<glyph unicode="&#xbc;" horiz-adv-x="1705" d="M274 -55l1078 1470h80l-1078 -1470h-80zM293 680v727h86v-727h-86zM1073 274v27l420 436h41v-405h115v-58h-115v-274h-86v274h-375zM1190 332h258v268z" />
<glyph unicode="&#xbd;" horiz-adv-x="1705" d="M233 -55l1078 1470h80l-1078 -1470h-80zM289 680v727h86v-727h-86zM1071 0q46 37 100.5 87.5t126.5 127.5t119 161.5t47 151.5q0 66 -52.5 107t-119.5 41q-37 0 -72.5 -14t-58.5 -29.5t-67 -50.5v84q99 71 204 71q111 0 182.5 -64t71.5 -145q0 -38 -10.5 -76.5t-36 -81.5 t-46.5 -74.5t-64 -80.5t-66 -73.5t-74 -78.5h377v-63h-561z" />
<glyph unicode="&#xbe;" horiz-adv-x="1705" d="M76 709v65q1 0 15 -6t21 -8t23 -7.5t29 -8.5t30.5 -6.5t36.5 -5t39 -1.5q81 0 132 39.5t51 108.5q0 82 -61 117.5t-154 33.5v64q62 0 105.5 14t63 36.5t27.5 42t8 38.5q0 62 -54 95.5t-122 33.5q-85 0 -182 -60v70q73 51 186 51q115 0 185.5 -53.5t70.5 -132.5 q0 -115 -137 -164q148 -50 148 -184q0 -54 -25 -96.5t-64.5 -66.5t-83 -36t-85.5 -12q-112 0 -203 39zM274 -55l1078 1470h80l-1078 -1470h-80zM1073 274v27l420 436h41v-405h115v-58h-115v-274h-86v274h-375zM1190 332h258v268z" />
<glyph unicode="&#xbf;" horiz-adv-x="575" d="M43 -180q0 77 29 157.5t71 143.5q111 167 138.5 219t27.5 113q0 25 -5.5 48t-11.5 36.5t-22 46.5l37 28q80 -91 80 -188q0 -65 -23.5 -116t-109.5 -193q-107 -170 -107 -299q0 -76 44.5 -133.5t111.5 -57.5q101 0 164 109h20l-49 -162q-71 -43 -139 -43q-110 0 -183 79 t-73 212zM231 745v199h134v-199h-134z" />
<glyph unicode="&#xc0;" horiz-adv-x="1366" d="M8 0l641 1407h64l645 -1407h-113l-221 483h-682l-221 -483h-113zM348 1753h250l250 -262h-100zM381 575h600l-299 656z" />
<glyph unicode="&#xc1;" horiz-adv-x="1366" d="M8 0l641 1407h64l645 -1407h-113l-221 483h-682l-221 -483h-113zM381 575h600l-299 656zM518 1491l250 262h250l-400 -262h-100z" />
<glyph unicode="&#xc2;" horiz-adv-x="1366" d="M8 0l641 1407h64l645 -1407h-113l-221 483h-682l-221 -483h-113zM346 1491l254 281h160l260 -281h-105l-233 180l-227 -180h-109zM381 575h600l-299 656z" />
<glyph unicode="&#xc3;" horiz-adv-x="1366" d="M8 0l641 1407h64l645 -1407h-113l-221 483h-682l-221 -483h-113zM344 1507q-4 101 21 154q19 42 60.5 66t86.5 24q83 0 242 -80q92 -45 123 -45q34 0 46 28t17 101h84q0 -3 -0.5 -17.5t-0.5 -17.5t-0.5 -15.5t-1 -16t-1.5 -14t-2 -15.5t-2.5 -13.5t-3 -14.5l-3.5 -14 t-5 -15q-20 -48 -59.5 -70.5t-76.5 -22.5q-89 0 -245 76q-94 45 -127 45q-21 0 -34.5 -8t-20 -27.5t-9 -37t-4.5 -50.5h-84zM381 575h600l-299 656z" />
<glyph unicode="&#xc4;" horiz-adv-x="1366" d="M8 0l641 1407h64l645 -1407h-113l-221 483h-682l-221 -483h-113zM381 575h600l-299 656zM401 1632q0 37 25.5 63.5t62.5 26.5t64 -26.5t27 -63.5q0 -36 -27 -62t-64 -26t-62.5 25.5t-25.5 62.5zM788 1630q0 38 26.5 64t62.5 26q37 0 62.5 -26.5t25.5 -63.5q0 -36 -26 -62 t-62 -26q-37 0 -63 25.5t-26 62.5z" />
<glyph unicode="&#xc5;" horiz-adv-x="1366" d="M8 0l641 1407h64l645 -1407h-113l-221 483h-682l-221 -483h-113zM381 575h600l-299 656zM469 1706q0 89 63 151t152 62q88 0 150.5 -62.5t62.5 -150.5q0 -89 -62.5 -152t-150.5 -63t-151.5 62.5t-63.5 152.5zM528 1706q0 -64 45 -108t107 -44q63 0 107 44.5t44 107.5 q0 62 -44 105.5t-107 43.5q-62 0 -107 -43.5t-45 -105.5z" />
<glyph unicode="&#xc6;" horiz-adv-x="1771" d="M-29 0l873 1397h831v-88h-655v-559h641v-91h-641v-569h674v-90h-785v659h-409l-410 -659h-119zM559 750h350v573z" />
<glyph unicode="&#xc7;" horiz-adv-x="1388" d="M78 696q0 116 31.5 218.5t85.5 180t125.5 139.5t153.5 101t166.5 59.5t166.5 20.5q243 0 496 -117v-118q-52 27 -90.5 44.5t-102 41t-135 35.5t-146.5 12q-183 0 -326.5 -78.5t-222.5 -218.5t-79 -318q0 -138 49 -254t132.5 -194t195 -121t235.5 -43q238 0 504 139v-112 q-251 -131 -496 -131l-16 -60q59 -9 98.5 -28.5t56 -45t22 -43.5t5.5 -36q0 -29 -12.5 -57t-41 -56.5t-85.5 -46t-135 -17.5q-40 0 -142 11l13 78q102 -7 127 -7q20 0 39.5 2t56 9t58.5 27.5t22 51.5q0 47 -49.5 64.5t-141.5 19.5l39 138q-299 35 -478 231t-179 479z" />
<glyph unicode="&#xc8;" horiz-adv-x="1028" d="M164 0v1397h762v-90h-654v-557h637v-91h-637v-571h670v-88h-778zM199 1753h250l249 -262h-100z" />
<glyph unicode="&#xc9;" horiz-adv-x="1028" d="M164 0v1397h762v-90h-654v-557h637v-91h-637v-571h670v-88h-778zM420 1491l250 262h250l-400 -262h-100z" />
<glyph unicode="&#xca;" horiz-adv-x="1028" d="M164 0v1397h762v-90h-654v-557h637v-91h-637v-571h670v-88h-778zM197 1491l254 281h159l260 -281h-104l-234 180l-227 -180h-108z" />
<glyph unicode="&#xcb;" horiz-adv-x="1028" d="M164 0v1397h762v-90h-654v-557h637v-91h-637v-571h670v-88h-778zM252 1632q0 37 25.5 63.5t62.5 26.5t63.5 -26.5t26.5 -63.5t-26.5 -62.5t-63.5 -25.5t-62.5 25.5t-25.5 62.5zM639 1630q0 38 26 64t62 26q37 0 62.5 -26.5t25.5 -63.5q0 -36 -26 -62t-62 -26 q-37 0 -62.5 25.5t-25.5 62.5z" />
<glyph unicode="&#xcc;" horiz-adv-x="438" d="M-115 1753h250l250 -262h-100zM164 0v1397h110v-1397h-110z" />
<glyph unicode="&#xcd;" horiz-adv-x="438" d="M55 1491l250 262h250l-399 -262h-101zM164 0v1397h110v-1397h-110z" />
<glyph unicode="&#xce;" horiz-adv-x="438" d="M-117 1491l254 281h160l260 -281h-104l-234 180l-227 -180h-109zM164 0v1397h110v-1397h-110z" />
<glyph unicode="&#xcf;" horiz-adv-x="438" d="M-61 1632q0 37 25.5 63.5t62.5 26.5t63.5 -26.5t26.5 -63.5t-26.5 -62.5t-63.5 -25.5t-62.5 25.5t-25.5 62.5zM164 0v1397h110v-1397h-110zM326 1630q0 38 26 64t62 26q37 0 62.5 -26.5t25.5 -63.5q0 -36 -26 -62t-62 -26q-37 0 -62.5 25.5t-25.5 62.5z" />
<glyph unicode="&#xd0;" horiz-adv-x="1515" d="M0 655v86h162v656h424q98 0 145 -1.5t115.5 -10t123.5 -28.5t115 -54q159 -92 243.5 -250.5t84.5 -347.5q0 -114 -32 -226t-108.5 -218.5t-187.5 -164.5q-67 -35 -122.5 -55.5t-122 -29t-112 -10t-142.5 -1.5h-424v655h-162zM270 88h328q140 0 228 16.5t198 79.5 q124 72 196 214t72 304q0 65 -13 129.5t-42 133t-83.5 132t-129.5 111.5q-100 64 -187 81.5t-239 17.5h-328v-566h453v-86h-453v-567z" />
<glyph unicode="&#xd1;" horiz-adv-x="1587" d="M164 0v1397h100l1051 -1221v1221h108v-1397h-90l-1061 1229v-1229h-108zM454.5 1582.5q3.5 43.5 20.5 78.5q19 42 61 66t87 24q82 0 241 -80q92 -45 123 -45q35 0 47 28.5t17 100.5h84q-3 -105 -21 -153q-20 -48 -59 -70.5t-76 -22.5q-90 0 -246 76q-94 45 -127 45 q-21 0 -34.5 -8t-20 -27.5t-8.5 -36.5t-4 -51h-84q-4 32 -0.5 75.5z" />
<glyph unicode="&#xd2;" horiz-adv-x="1636" d="M78 700q0 142 53.5 271.5t148 228t235 157t304.5 58.5q162 0 302 -58t235 -155.5t149 -226.5t54 -270q0 -154 -59 -289.5t-159.5 -230t-236.5 -149t-287 -54.5q-206 0 -375.5 95.5t-266.5 260t-97 362.5zM201 696q0 -164 78 -304t219.5 -224t316.5 -84q121 0 233 44 t199 123t139 197t52 257q0 119 -45.5 229t-125.5 193.5t-196.5 133.5t-249.5 50q-175 0 -317.5 -82t-222.5 -223t-80 -310zM504 1753h250l250 -262h-101z" />
<glyph unicode="&#xd3;" horiz-adv-x="1636" d="M78 700q0 142 53.5 271.5t148 228t235 157t304.5 58.5q162 0 302 -58t235 -155.5t149 -226.5t54 -270q0 -154 -59 -289.5t-159.5 -230t-236.5 -149t-287 -54.5q-206 0 -375.5 95.5t-266.5 260t-97 362.5zM201 696q0 -164 78 -304t219.5 -224t316.5 -84q121 0 233 44 t199 123t139 197t52 257q0 119 -45.5 229t-125.5 193.5t-196.5 133.5t-249.5 50q-175 0 -317.5 -82t-222.5 -223t-80 -310zM653 1491l250 262h250l-399 -262h-101z" />
<glyph unicode="&#xd4;" horiz-adv-x="1636" d="M78 700q0 142 53.5 271.5t148 228t235 157t304.5 58.5q162 0 302 -58t235 -155.5t149 -226.5t54 -270q0 -154 -59 -289.5t-159.5 -230t-236.5 -149t-287 -54.5q-206 0 -375.5 95.5t-266.5 260t-97 362.5zM201 696q0 -164 78 -304t219.5 -224t316.5 -84q121 0 233 44 t199 123t139 197t52 257q0 119 -45.5 229t-125.5 193.5t-196.5 133.5t-249.5 50q-175 0 -317.5 -82t-222.5 -223t-80 -310zM481 1491l254 281h160l260 -281h-104l-234 180l-227 -180h-109z" />
<glyph unicode="&#xd5;" horiz-adv-x="1636" d="M78 700q0 142 53.5 271.5t148 228t235 157t304.5 58.5q162 0 302 -58t235 -155.5t149 -226.5t54 -270q0 -154 -59 -289.5t-159.5 -230t-236.5 -149t-287 -54.5q-206 0 -375.5 95.5t-266.5 260t-97 362.5zM201 696q0 -164 78 -304t219.5 -224t316.5 -84q121 0 233 44 t199 123t139 197t52 257q0 119 -45.5 229t-125.5 193.5t-196.5 133.5t-249.5 50q-175 0 -317.5 -82t-222.5 -223t-80 -310zM479 1507q-4 101 21 154q19 42 60.5 66t86.5 24q83 0 242 -80q92 -45 123 -45q34 0 46 28t17 101h84q0 -3 -0.5 -17.5t-0.5 -17.5t-0.5 -15.5t-1 -16 t-1.5 -14t-2 -15.5t-2.5 -13.5t-3 -14.5l-3.5 -14t-5 -15q-20 -48 -59 -70.5t-76 -22.5q-90 0 -246 76q-94 45 -127 45q-21 0 -34.5 -8t-20 -27.5t-9 -37t-4.5 -50.5h-84z" />
<glyph unicode="&#xd6;" horiz-adv-x="1636" d="M78 700q0 142 53.5 271.5t148 228t235 157t304.5 58.5q162 0 302 -58t235 -155.5t149 -226.5t54 -270q0 -154 -59 -289.5t-159.5 -230t-236.5 -149t-287 -54.5q-206 0 -375.5 95.5t-266.5 260t-97 362.5zM201 696q0 -164 78 -304t219.5 -224t316.5 -84q121 0 233 44 t199 123t139 197t52 257q0 119 -45.5 229t-125.5 193.5t-196.5 133.5t-249.5 50q-175 0 -317.5 -82t-222.5 -223t-80 -310zM537 1632q0 37 25.5 63.5t62.5 26.5t63.5 -26.5t26.5 -63.5t-26.5 -62.5t-63.5 -25.5t-62.5 25.5t-25.5 62.5zM924 1630q0 38 26 64t62 26 q37 0 62.5 -26.5t25.5 -63.5q0 -36 -26 -62t-62 -26q-37 0 -62.5 25.5t-25.5 62.5z" />
<glyph unicode="&#xd7;" horiz-adv-x="1351" d="M264 352l346 346l-346 346l66 66l346 -346l346 346l65 -66l-346 -346l346 -346l-65 -65l-346 346l-346 -346z" />
<glyph unicode="&#xd8;" horiz-adv-x="1640" d="M78 696q0 107 31.5 210.5t95 195.5t151 162t209 110.5t260.5 40.5q87 0 163 -14.5t134 -41.5t87 -44t65 -43l131 135l76 -51l-131 -146q27 -28 46 -49.5t53.5 -73t56.5 -102t39.5 -127.5t17.5 -160q0 -152 -59.5 -286t-160 -228t-236 -148t-284.5 -54q-237 0 -452 137 l-127 -142l-78 60l133 143q-82 82 -125 156q-96 175 -96 360zM201 694q0 -164 75 -305q36 -64 97 -125l829 924q-161 127 -377 127q-136 0 -254 -51.5t-198.5 -137t-126 -198t-45.5 -234.5zM444 201q170 -121 373 -121q139 0 258 52t199 138.5t125 198t45 229.5t-44 228 t-126 198z" />
<glyph unicode="&#xd9;" horiz-adv-x="1429" d="M131 692v705h107v-725q0 -240 75 -369q56 -96 156.5 -158.5t243.5 -62.5q128 0 239 57.5t162 159.5q45 87 61.5 174t16.5 199v725h106v-705q0 -165 -19 -265.5t-79 -193.5q-69 -108 -191 -179.5t-288 -71.5q-94 0 -183.5 24t-173 81.5t-131.5 141.5q-48 82 -71 163 t-27 137.5t-4 162.5zM381 1753h250l250 -262h-101z" />
<glyph unicode="&#xda;" horiz-adv-x="1429" d="M131 692v705h107v-725q0 -240 75 -369q56 -96 156.5 -158.5t243.5 -62.5q128 0 239 57.5t162 159.5q45 87 61.5 174t16.5 199v725h106v-705q0 -165 -19 -265.5t-79 -193.5q-69 -108 -191 -179.5t-288 -71.5q-94 0 -183.5 24t-173 81.5t-131.5 141.5q-48 82 -71 163 t-27 137.5t-4 162.5zM551 1491l250 262h250l-400 -262h-100z" />
<glyph unicode="&#xdb;" horiz-adv-x="1429" d="M131 692v705h107v-725q0 -240 75 -369q56 -96 156.5 -158.5t243.5 -62.5q128 0 239 57.5t162 159.5q45 87 61.5 174t16.5 199v725h106v-705q0 -165 -19 -265.5t-79 -193.5q-69 -108 -191 -179.5t-288 -71.5q-94 0 -183.5 24t-173 81.5t-131.5 141.5q-48 82 -71 163 t-27 137.5t-4 162.5zM379 1491l254 281h160l260 -281h-105l-233 180l-228 -180h-108z" />
<glyph unicode="&#xdc;" horiz-adv-x="1429" d="M131 692v705h107v-725q0 -240 75 -369q56 -96 156.5 -158.5t243.5 -62.5q128 0 239 57.5t162 159.5q45 87 61.5 174t16.5 199v725h106v-705q0 -165 -19 -265.5t-79 -193.5q-69 -108 -191 -179.5t-288 -71.5q-94 0 -183.5 24t-173 81.5t-131.5 141.5q-48 82 -71 163 t-27 137.5t-4 162.5zM434 1632q0 37 25.5 63.5t62.5 26.5t63.5 -26.5t26.5 -63.5t-26.5 -62.5t-63.5 -25.5t-62.5 25.5t-25.5 62.5zM821 1630q0 38 26 64t62 26q37 0 62.5 -26.5t25.5 -63.5q0 -36 -26 -62t-62 -26q-37 0 -62.5 25.5t-25.5 62.5z" />
<glyph unicode="&#xdd;" horiz-adv-x="1193" d="M0 1397h131l465 -553l467 553h133l-547 -647v-750h-108v750zM494 1491l249 262h250l-399 -262h-100z" />
<glyph unicode="&#xde;" horiz-adv-x="1044" d="M162 0v1397h106v-326h176q158 0 234.5 -10.5t146.5 -48.5q82 -47 128 -127t46 -183q0 -107 -50 -193.5t-130 -123.5q-82 -38 -154 -47.5t-206 -9.5h-191v-328h-106zM268 416h197q114 0 184 12.5t129 50.5q46 30 73.5 91.5t27.5 129.5q0 66 -27.5 125.5t-75.5 92.5 q-46 33 -116.5 48t-210.5 15h-181v-565z" />
<glyph unicode="&#xdf;" d="M127 0v893q0 157 12.5 237.5t61.5 147.5q53 73 136.5 105t168.5 32q164 0 268.5 -95t104.5 -243q0 -131 -91 -235q-35 -39 -94 -66q22 -9 35 -15t42 -22.5t48 -33.5t44 -47.5t40 -64t26 -82.5t11 -105q0 -177 -100.5 -300.5t-266.5 -123.5q-53 0 -127 18v102 q73 -26 125 -26q125 0 196 92t71 235q0 151 -77 234.5t-202 91.5v92q45 0 81 13.5t58.5 33t38.5 47.5t23.5 50.5t12 49t5 37t0.5 19.5q0 125 -76 193.5t-192 68.5q-82 0 -147.5 -30.5t-96.5 -94.5q-29 -64 -36 -121.5t-7 -193.5v-893h-96z" />
<glyph unicode="&#xe0;" horiz-adv-x="851" d="M35 1386h166l215 -319h-70zM55 213q0 62 24 113t60 84.5t89 59.5t100 40t104.5 23.5t91 12.5t70.5 5v117q0 182 -203 182q-78 0 -140 -26t-142 -85v101q47 28 73.5 42.5t92 35t128.5 20.5q64 0 129.5 -20.5t102.5 -61.5t47 -84t10 -131v-471q0 -76 2 -82q5 -10 19 -10 q19 0 61 28t72 54v-82q-135 -96 -184 -96q-39 0 -51 25.5t-17 88.5q-145 -114 -289 -114q-102 0 -176 67t-74 164zM156 213q0 -74 58.5 -113t123.5 -39q125 0 256 121v289q-171 -6 -252 -39q-79 -32 -132.5 -87t-53.5 -132z" />
<glyph unicode="&#xe1;" horiz-adv-x="851" d="M55 213q0 62 24 113t60 84.5t89 59.5t100 40t104.5 23.5t91 12.5t70.5 5v117q0 182 -203 182q-78 0 -140 -26t-142 -85v101q47 28 73.5 42.5t92 35t128.5 20.5q64 0 129.5 -20.5t102.5 -61.5t47 -84t10 -131v-471q0 -76 2 -82q5 -10 19 -10q19 0 61 28t72 54v-82 q-135 -96 -184 -96q-39 0 -51 25.5t-17 88.5q-145 -114 -289 -114q-102 0 -176 67t-74 164zM156 213q0 -74 58.5 -113t123.5 -39q125 0 256 121v289q-171 -6 -252 -39q-79 -32 -132.5 -87t-53.5 -132zM387 1067l213 319h166l-311 -319h-68z" />
<glyph unicode="&#xe2;" horiz-adv-x="851" d="M55 213q0 62 24 113t60 84.5t89 59.5t100 40t104.5 23.5t91 12.5t70.5 5v117q0 182 -203 182q-78 0 -140 -26t-142 -85v101q47 28 73.5 42.5t92 35t128.5 20.5q64 0 129.5 -20.5t102.5 -61.5t47 -84t10 -131v-471q0 -76 2 -82q5 -10 19 -10q19 0 61 28t72 54v-82 q-135 -96 -184 -96q-39 0 -51 25.5t-17 88.5q-145 -114 -289 -114q-102 0 -176 67t-74 164zM98 1049l221 335h125l218 -335h-78l-201 223l-207 -223h-78zM156 213q0 -74 58.5 -113t123.5 -39q125 0 256 121v289q-171 -6 -252 -39q-79 -32 -132.5 -87t-53.5 -132z" />
<glyph unicode="&#xe3;" horiz-adv-x="851" d="M45 1122q16 195 164 195q40 0 81 -10.5t116 -40.5q111 -45 155 -45q27 0 46 9.5t28 27t12.5 30t5.5 29.5h62q1 -52 -15.5 -91.5t-38 -58.5t-49 -30.5t-41.5 -14t-22 -2.5q-48 0 -170 45q-104 37 -132 45.5t-50 8.5q-39 0 -60 -27.5t-26 -69.5h-66zM55 213q0 62 24 113 t60 84.5t89 59.5t100 40t104.5 23.5t91 12.5t70.5 5v117q0 182 -203 182q-78 0 -140 -26t-142 -85v101q47 28 73.5 42.5t92 35t128.5 20.5q64 0 129.5 -20.5t102.5 -61.5t47 -84t10 -131v-471q0 -76 2 -82q5 -10 19 -10q19 0 61 28t72 54v-82q-135 -96 -184 -96 q-39 0 -51 25.5t-17 88.5q-145 -114 -289 -114q-102 0 -176 67t-74 164zM156 213q0 -74 58.5 -113t123.5 -39q125 0 256 121v289q-171 -6 -252 -39q-79 -32 -132.5 -87t-53.5 -132z" />
<glyph unicode="&#xe4;" horiz-adv-x="851" d="M55 213q0 62 24 113t60 84.5t89 59.5t100 40t104.5 23.5t91 12.5t70.5 5v117q0 182 -203 182q-78 0 -140 -26t-142 -85v101q47 28 73.5 42.5t92 35t128.5 20.5q64 0 129.5 -20.5t102.5 -61.5t47 -84t10 -131v-471q0 -76 2 -82q5 -10 19 -10q19 0 61 28t72 54v-82 q-135 -96 -184 -96q-39 0 -51 25.5t-17 88.5q-145 -114 -289 -114q-102 0 -176 67t-74 164zM109 1214q0 37 25.5 63t62.5 26t62.5 -26t25.5 -63t-25.5 -63.5t-62.5 -26.5t-62.5 26.5t-25.5 63.5zM156 213q0 -74 58.5 -113t123.5 -39q125 0 256 121v289q-171 -6 -252 -39 q-79 -32 -132.5 -87t-53.5 -132zM475 1214q0 36 26.5 62.5t61.5 26.5q37 0 63.5 -26t26.5 -63t-26.5 -63.5t-63.5 -26.5q-35 0 -61.5 26.5t-26.5 63.5z" />
<glyph unicode="&#xe5;" horiz-adv-x="851" d="M55 213q0 62 24 113t60 84.5t89 59.5t100 40t104.5 23.5t91 12.5t70.5 5v117q0 182 -203 182q-78 0 -140 -26t-142 -85v101q47 28 73.5 42.5t92 35t128.5 20.5q64 0 129.5 -20.5t102.5 -61.5t47 -84t10 -131v-471q0 -76 2 -82q5 -10 19 -10q19 0 61 28t72 54v-82 q-135 -96 -184 -96q-39 0 -51 25.5t-17 88.5q-145 -114 -289 -114q-102 0 -176 67t-74 164zM156 213q0 -74 58.5 -113t123.5 -39q125 0 256 121v289q-171 -6 -252 -39q-79 -32 -132.5 -87t-53.5 -132zM203 1212q0 74 52.5 126.5t125.5 52.5q72 0 124 -52t52 -127 q0 -72 -51.5 -124t-124.5 -52t-125.5 52t-52.5 124zM260 1214q0 -50 35 -85t86 -35q49 0 84 35t35 85q0 51 -34.5 86t-84.5 35q-51 0 -86 -35t-35 -86z" />
<glyph unicode="&#xe6;" horiz-adv-x="1353" d="M55 219q0 44 14.5 82.5t37.5 68t63 56t80.5 46.5t100 39.5t112 34t125.5 32.5q0 104 -10 149q-11 49 -46 78.5t-65 37t-61 7.5q-141 0 -308 -117v103q145 102 322 102q58 0 102 -13.5t73 -40t42 -43t29 -44.5q21 28 37 45t48.5 43t76 39.5t96.5 13.5q40 0 81 -10t85 -33 t82.5 -66.5t62.5 -103.5q38 -92 43 -227h-594v-76q0 -140 27 -193q20 -43 49.5 -74t62.5 -47t63 -23t60 -7q167 0 332 121v-113q-168 -104 -342 -104q-171 0 -291 143q-97 -70 -178 -106.5t-168 -36.5q-58 0 -105.5 21.5t-77 56t-45.5 75.5t-16 84zM154 217q0 -64 48 -107.5 t122 -43.5q113 0 264 116v316q-55 -15 -85 -23.5t-83 -25.5t-84 -31.5t-70 -37t-60.5 -45.5t-36.5 -53.5t-15 -64.5zM684 578h485q-8 90 -43 151q-29 52 -83 84.5t-121 32.5q-98 0 -166.5 -74t-71.5 -194z" />
<glyph unicode="&#xe7;" horiz-adv-x="837" d="M80 455q0 217 129 350t317 133q49 0 99 -8.5t74.5 -15t70.5 -21.5v-109q-45 20 -69.5 29.5t-75.5 21t-101 11.5q-156 0 -248 -112t-92 -279q0 -76 22 -143.5t64 -121t111 -85t156 -31.5q119 0 249 57v-102q-142 -45 -245 -47l-33 -68q58 0 100 -25q27 -16 44.5 -45 t17.5 -63q0 -21 -6 -42t-28.5 -48t-59.5 -46t-106.5 -30t-162.5 -6l15 76q20 1 25.5 1t27.5 1t32 2.5t30.5 4t31 6l27 9t25.5 12.5t18.5 16t13.5 20.5t4 25.5q0 24 -14.5 39.5t-42.5 21.5t-49.5 7.5t-55.5 1.5l64 133q-172 28 -275.5 145t-103.5 324z" />
<glyph unicode="&#xe8;" horiz-adv-x="976" d="M74 471q0 124 49.5 229t147.5 171.5t225 66.5q73 0 136.5 -21.5t107.5 -57.5t74.5 -76t49.5 -85q35 -79 39 -202h-721q-4 -105 27 -188.5t84.5 -133t117.5 -75t132 -25.5q62 0 118 14t101.5 40t70 44t54.5 43v-111q-154 -122 -355 -122q-109 0 -198 41.5t-144.5 111 t-85.5 156t-30 180.5zM193 573h593q-18 90 -55 148q-36 60 -98 94.5t-137 34.5q-102 0 -190 -72t-113 -205zM209 1386h166l215 -319h-70z" />
<glyph unicode="&#xe9;" horiz-adv-x="976" d="M74 471q0 124 49.5 229t147.5 171.5t225 66.5q73 0 136.5 -21.5t107.5 -57.5t74.5 -76t49.5 -85q35 -79 39 -202h-721q-4 -105 27 -188.5t84.5 -133t117.5 -75t132 -25.5q62 0 118 14t101.5 40t70 44t54.5 43v-111q-154 -122 -355 -122q-109 0 -198 41.5t-144.5 111 t-85.5 156t-30 180.5zM193 573h593q-18 90 -55 148q-36 60 -98 94.5t-137 34.5q-102 0 -190 -72t-113 -205zM459 1067l213 319h166l-312 -319h-67z" />
<glyph unicode="&#xea;" horiz-adv-x="976" d="M74 471q0 124 49.5 229t147.5 171.5t225 66.5q73 0 136.5 -21.5t107.5 -57.5t74.5 -76t49.5 -85q35 -79 39 -202h-721q-4 -105 27 -188.5t84.5 -133t117.5 -75t132 -25.5q62 0 118 14t101.5 40t70 44t54.5 43v-111q-154 -122 -355 -122q-109 0 -198 41.5t-144.5 111 t-85.5 156t-30 180.5zM193 573h593q-18 90 -55 148q-36 60 -98 94.5t-137 34.5q-102 0 -190 -72t-113 -205zM221 1049l221 335h125l217 -335h-77l-201 223l-207 -223h-78z" />
<glyph unicode="&#xeb;" horiz-adv-x="976" d="M74 471q0 124 49.5 229t147.5 171.5t225 66.5q73 0 136.5 -21.5t107.5 -57.5t74.5 -76t49.5 -85q35 -79 39 -202h-721q-4 -105 27 -188.5t84.5 -133t117.5 -75t132 -25.5q62 0 118 14t101.5 40t70 44t54.5 43v-111q-154 -122 -355 -122q-109 0 -198 41.5t-144.5 111 t-85.5 156t-30 180.5zM193 573h593q-18 90 -55 148q-36 60 -98 94.5t-137 34.5q-102 0 -190 -72t-113 -205zM231 1214q0 37 25.5 63t62.5 26t63 -26t26 -63t-26 -63.5t-63 -26.5t-62.5 26.5t-25.5 63.5zM598 1214q0 36 26 62.5t62 26.5q37 0 63.5 -26t26.5 -63t-26.5 -63.5 t-63.5 -26.5q-35 0 -61.5 26.5t-26.5 63.5z" />
<glyph unicode="&#xec;" horiz-adv-x="382" d="M-154 1386h166l215 -319h-69zM143 0v920h97v-920h-97z" />
<glyph unicode="&#xed;" horiz-adv-x="382" d="M143 0v920h97v-920h-97zM158 1067l213 319h166l-312 -319h-67z" />
<glyph unicode="&#xee;" horiz-adv-x="382" d="M-90 1049l221 335h125l217 -335h-78l-200 223l-207 -223h-78zM143 0v920h97v-920h-97z" />
<glyph unicode="&#xef;" horiz-adv-x="382" d="M-80 1214q0 37 25.5 63t62.5 26t62.5 -26t25.5 -63t-25.5 -63.5t-62.5 -26.5t-62.5 26.5t-25.5 63.5zM143 0v920h97v-920h-97zM287 1214q0 36 26.5 62.5t61.5 26.5q37 0 63.5 -26t26.5 -63t-26.5 -63.5t-63.5 -26.5q-35 0 -61.5 26.5t-26.5 63.5z" />
<glyph unicode="&#xf0;" horiz-adv-x="1153" d="M82 453q0 69 19.5 137.5t61 131.5t99 111t140 76.5t178.5 28.5q61 0 116 -12.5t89 -27t71.5 -41.5t51.5 -40t40 -39q-57 137 -120.5 218.5t-188.5 174.5l-229 -110l-33 63l194 95q-73 40 -116.5 58.5t-126.5 45.5l39 74q88 -26 143 -50t149 -81l164 80l33 -66l-131 -61 q45 -35 73.5 -61t71.5 -77t80 -114q127 -216 127 -453q0 -131 -40.5 -234.5t-111 -167.5t-161 -97t-195.5 -33q-112 0 -206.5 41.5t-154.5 109t-93 151t-33 169.5zM178 451q0 -164 114 -272.5t292 -108.5q173 0 283 104t110 289q0 100 -36 178t-94.5 123t-126 67.5 t-138.5 22.5q-118 0 -212 -57t-143 -148.5t-49 -197.5z" />
<glyph unicode="&#xf1;" horiz-adv-x="1003" d="M127 0v920h98v-160q17 23 21.5 29t25.5 31t34 35.5t39.5 30t51 28.5t58.5 16.5t71 7.5q81 0 157.5 -34t117.5 -95q44 -65 58.5 -137.5t14.5 -173.5v-498h-98v489q0 99 -14 154.5t-43 95.5q-33 47 -87.5 76t-117.5 29q-122 0 -223 -101q-37 -41 -66 -98v-645h-98z M168 1122q16 195 164 195q40 0 80 -10.5t116 -40.5q111 -45 156 -45q27 0 46 9.5t28 27t12.5 30t5.5 29.5h62q1 -52 -15.5 -91.5t-38 -58.5t-49 -30.5t-41.5 -14t-22 -2.5q-48 0 -170 45q-103 37 -132 45.5t-51 8.5q-39 0 -60 -27.5t-26 -69.5h-65z" />
<glyph unicode="&#xf2;" horiz-adv-x="1083" d="M74 459q0 130 55 238t163.5 174.5t250.5 66.5q140 0 247.5 -65.5t163.5 -173.5t56 -240q0 -144 -67.5 -255t-172.5 -166.5t-227 -55.5t-227.5 55.5t-173.5 166.5t-68 255zM180 461q0 -171 105 -280t258 -109t257.5 109t104.5 280q0 91 -32 166t-84 121.5t-115.5 72 t-130.5 25.5q-65 0 -128 -24.5t-116 -70.5t-86 -121.5t-33 -168.5zM250 1386h166l215 -319h-70z" />
<glyph unicode="&#xf3;" horiz-adv-x="1083" d="M74 459q0 130 55 238t163.5 174.5t250.5 66.5q140 0 247.5 -65.5t163.5 -173.5t56 -240q0 -144 -67.5 -255t-172.5 -166.5t-227 -55.5t-227.5 55.5t-173.5 166.5t-68 255zM180 461q0 -171 105 -280t258 -109t257.5 109t104.5 280q0 91 -32 166t-84 121.5t-115.5 72 t-130.5 25.5q-65 0 -128 -24.5t-116 -70.5t-86 -121.5t-33 -168.5zM479 1067l213 319h166l-311 -319h-68z" />
<glyph unicode="&#xf4;" horiz-adv-x="1083" d="M74 459q0 130 55 238t163.5 174.5t250.5 66.5q140 0 247.5 -65.5t163.5 -173.5t56 -240q0 -144 -67.5 -255t-172.5 -166.5t-227 -55.5t-227.5 55.5t-173.5 166.5t-68 255zM180 461q0 -171 105 -280t258 -109t257.5 109t104.5 280q0 91 -32 166t-84 121.5t-115.5 72 t-130.5 25.5q-65 0 -128 -24.5t-116 -70.5t-86 -121.5t-33 -168.5zM283 1049l221 335h125l217 -335h-78l-201 223l-207 -223h-77z" />
<glyph unicode="&#xf5;" horiz-adv-x="1083" d="M74 459q0 130 55 238t163.5 174.5t250.5 66.5q140 0 247.5 -65.5t163.5 -173.5t56 -240q0 -144 -67.5 -255t-172.5 -166.5t-227 -55.5t-227.5 55.5t-173.5 166.5t-68 255zM180 461q0 -171 105 -280t258 -109t257.5 109t104.5 280q0 91 -32 166t-84 121.5t-115.5 72 t-130.5 25.5q-65 0 -128 -24.5t-116 -70.5t-86 -121.5t-33 -168.5zM229 1122q16 195 164 195q40 0 81 -10.5t116 -40.5q111 -45 155 -45q81 0 93 96h61q1 -52 -15.5 -91.5t-38 -58.5t-49 -30.5t-41.5 -14t-22 -2.5q-48 0 -170 45q-104 37 -132 45.5t-50 8.5q-39 0 -60 -27.5 t-26 -69.5h-66z" />
<glyph unicode="&#xf6;" horiz-adv-x="1083" d="M74 459q0 130 55 238t163.5 174.5t250.5 66.5q140 0 247.5 -65.5t163.5 -173.5t56 -240q0 -144 -67.5 -255t-172.5 -166.5t-227 -55.5t-227.5 55.5t-173.5 166.5t-68 255zM180 461q0 -171 105 -280t258 -109t257.5 109t104.5 280q0 91 -32 166t-84 121.5t-115.5 72 t-130.5 25.5q-65 0 -128 -24.5t-116 -70.5t-86 -121.5t-33 -168.5zM293 1214q0 37 25.5 63t62.5 26t62.5 -26t25.5 -63t-25.5 -63.5t-62.5 -26.5t-62.5 26.5t-25.5 63.5zM659 1214q0 36 26.5 62.5t62.5 26.5q37 0 63.5 -26t26.5 -63t-26.5 -63.5t-63.5 -26.5q-36 0 -62.5 27 t-26.5 63z" />
<glyph unicode="&#xf7;" horiz-adv-x="1351" d="M139 651v94h1073v-94h-1073zM598 1038q0 33 23.5 56.5t56.5 23.5t55.5 -23.5t22.5 -56.5q0 -31 -22.5 -54t-55.5 -23q-34 0 -57 22.5t-23 54.5zM600 350q0 33 23.5 55.5t54.5 22.5q32 0 55 -23t23 -55q0 -31 -23 -54.5t-55 -23.5t-55 23t-23 55z" />
<glyph unicode="&#xf8;" horiz-adv-x="1085" d="M74 0l121 131q-119 148 -119 330q0 91 30 175t86 152t147.5 109t203.5 41q156 0 280 -88l109 121l63 -51l-106 -127q123 -125 123 -330q0 -140 -63 -251t-169.5 -170.5t-236.5 -59.5q-70 0 -133.5 18t-90.5 33t-61 39l-117 -133zM182 463q0 -152 80 -254l500 569l-14 8 q-13 9 -18.5 12t-21.5 11.5t-26.5 12.5t-28.5 10.5t-34 9.5t-36.5 5.5t-41.5 2.5q-68 0 -131.5 -24.5t-114.5 -71t-82 -122t-31 -169.5zM324 145q97 -69 217 -69q160 0 263 111t103 270q0 151 -84 260z" />
<glyph unicode="&#xf9;" horiz-adv-x="1003" d="M119 401v519h98v-519q0 -84 7 -132t30 -89q33 -60 91.5 -86t119.5 -26q134 0 233 96q32 34 70 112v644h98v-920h-98v152q-26 -32 -47.5 -54t-61 -52.5t-91.5 -47t-113 -16.5q-85 0 -163.5 39.5t-115.5 105.5q-36 61 -46.5 124t-10.5 150zM188 1386h166l215 -319h-69z" />
<glyph unicode="&#xfa;" horiz-adv-x="1003" d="M119 401v519h98v-519q0 -84 7 -132t30 -89q33 -60 91.5 -86t119.5 -26q134 0 233 96q32 34 70 112v644h98v-920h-98v152q-26 -32 -47.5 -54t-61 -52.5t-91.5 -47t-113 -16.5q-85 0 -163.5 39.5t-115.5 105.5q-36 61 -46.5 124t-10.5 150zM469 1067l213 319h166l-311 -319 h-68z" />
<glyph unicode="&#xfb;" horiz-adv-x="1003" d="M119 401v519h98v-519q0 -84 7 -132t30 -89q33 -60 91.5 -86t119.5 -26q134 0 233 96q32 34 70 112v644h98v-920h-98v152q-26 -32 -47.5 -54t-61 -52.5t-91.5 -47t-113 -16.5q-85 0 -163.5 39.5t-115.5 105.5q-36 61 -46.5 124t-10.5 150zM221 1049l221 335h125l217 -335 h-77l-201 223l-207 -223h-78z" />
<glyph unicode="&#xfc;" horiz-adv-x="1003" d="M119 401v519h98v-519q0 -84 7 -132t30 -89q33 -60 91.5 -86t119.5 -26q134 0 233 96q32 34 70 112v644h98v-920h-98v152q-26 -32 -47.5 -54t-61 -52.5t-91.5 -47t-113 -16.5q-85 0 -163.5 39.5t-115.5 105.5q-36 61 -46.5 124t-10.5 150zM231 1214q0 37 25.5 63t62.5 26 t63 -26t26 -63t-26 -63.5t-63 -26.5t-62.5 26.5t-25.5 63.5zM598 1214q0 36 26 62.5t62 26.5q37 0 63.5 -26t26.5 -63t-26.5 -63.5t-63.5 -26.5q-35 0 -61.5 26.5t-26.5 63.5z" />
<glyph unicode="&#xfd;" horiz-adv-x="841" d="M0 920h100l336 -644l318 644h100l-688 -1391h-100l321 649zM381 1067l213 319h166l-311 -319h-68z" />
<glyph unicode="&#xfe;" horiz-adv-x="1044" d="M129 -471v1868h98v-529q43 20 70.5 31.5t88 25t122.5 13.5q192 0 321 -134t129 -341q0 -112 -41 -205.5t-107 -152.5t-146 -91t-162 -32q-134 0 -275 69v-522h-98zM227 147q37 -21 62.5 -33t80.5 -26t113 -14q87 0 158 30.5t116 83t69 121t24 146.5q0 120 -54.5 210.5 t-139.5 134.5t-187 44q-52 0 -100.5 -12t-74.5 -24t-67 -34v-627z" />
<glyph unicode="&#xff;" horiz-adv-x="841" d="M0 920h100l336 -644l318 644h100l-688 -1391h-100l321 649zM164 1214q0 37 25.5 63t62.5 26t62.5 -26t25.5 -63t-25.5 -63.5t-62.5 -26.5t-62.5 26.5t-25.5 63.5zM530 1214q0 36 26 62.5t62 26.5q37 0 64 -26t27 -63t-27 -63.5t-64 -26.5q-35 0 -61.5 26.5t-26.5 63.5z " />
<glyph unicode="&#x152;" horiz-adv-x="1828" d="M78 696q0 296 213 504q49 48 100.5 83t108.5 56t102.5 33.5t110.5 17.5t102.5 6t106.5 1h815v-92h-660v-560h645v-90h-645v-565h674v-90h-829q-96 0 -146.5 2.5t-128 13t-142.5 37.5t-130 72q-134 93 -215.5 240.5t-81.5 330.5zM197 696q0 -192 96.5 -334.5t238.5 -207.5 q67 -31 150.5 -46t140.5 -17t146 -1v1215q-118 2 -188.5 -2t-143.5 -21q-64 -16 -125.5 -48.5t-119 -84.5t-100.5 -117.5t-69 -152.5t-26 -183z" />
<glyph unicode="&#x153;" horiz-adv-x="1695" d="M74 459q0 97 27 178t72.5 135.5t106 92.5t125.5 55.5t132 17.5q236 0 383 -197q44 75 92 115q99 82 223 82q21 0 46 -3.5t63.5 -15t73.5 -30t72 -52.5t64 -78.5t43.5 -112.5t16.5 -150h-635v-41q0 -44 11 -110.5t34 -121.5q30 -69 99 -106t143 -37q60 0 115 14t98.5 40 t65 42t48.5 39v-113q-151 -120 -344 -120q-65 0 -119.5 17.5t-86.5 39t-61 57.5t-38.5 54t-23.5 47q-26 -33 -41 -50.5t-55 -54t-77 -56.5t-96.5 -37t-124.5 -17q-60 0 -121 16t-121.5 53t-106.5 90.5t-74.5 135.5t-28.5 182zM180 463q0 -92 31 -168t81.5 -123t113 -72.5 t129.5 -25.5q69 0 130 26t108.5 74.5t75.5 127t28 175.5q0 164 -86.5 266.5t-249.5 102.5q-115 0 -198.5 -54t-123 -139.5t-39.5 -189.5zM979 586h520q-8 66 -33.5 116t-55 76.5t-66 42.5t-61.5 20.5t-46 4.5q-68 0 -125.5 -33.5t-91.5 -91.5q-32 -50 -41 -135z" />
<glyph unicode="&#x178;" horiz-adv-x="1193" d="M0 1397h131l465 -553l467 553h133l-547 -647v-750h-108v750zM315 1632q0 37 25.5 63.5t62.5 26.5t64 -26.5t27 -63.5q0 -36 -27 -62t-64 -26t-62.5 25.5t-25.5 62.5zM702 1630q0 38 26.5 64t62.5 26q37 0 62.5 -26.5t25.5 -63.5q0 -36 -26 -62t-62 -26q-37 0 -63 25.5 t-26 62.5z" />
<glyph unicode="&#x2c6;" horiz-adv-x="681" d="M59 1049l222 335h125l217 -335h-78l-201 223l-207 -223h-78z" />
<glyph unicode="&#x2dc;" horiz-adv-x="681" d="M6 1122q16 195 164 195q40 0 81 -10.5t116 -40.5q111 -45 155 -45q27 0 46 9.5t28 27t12.5 30t5.5 29.5h62q1 -52 -15.5 -91.5t-38 -58.5t-49 -30.5t-41.5 -14t-22 -2.5q-48 0 -170 45q-104 37 -132 45.5t-50 8.5q-39 0 -60 -27.5t-26 -69.5h-66z" />
<glyph unicode="&#x2000;" horiz-adv-x="959" />
<glyph unicode="&#x2001;" horiz-adv-x="1919" />
<glyph unicode="&#x2002;" horiz-adv-x="959" />
<glyph unicode="&#x2003;" horiz-adv-x="1919" />
<glyph unicode="&#x2004;" horiz-adv-x="639" />
<glyph unicode="&#x2005;" horiz-adv-x="479" />
<glyph unicode="&#x2006;" horiz-adv-x="319" />
<glyph unicode="&#x2007;" horiz-adv-x="319" />
<glyph unicode="&#x2008;" horiz-adv-x="239" />
<glyph unicode="&#x2009;" horiz-adv-x="383" />
<glyph unicode="&#x200a;" horiz-adv-x="106" />
<glyph unicode="&#x2010;" horiz-adv-x="638" d="M78 414v96h485v-96h-485z" />
<glyph unicode="&#x2011;" horiz-adv-x="638" d="M78 414v96h485v-96h-485z" />
<glyph unicode="&#x2012;" horiz-adv-x="638" d="M78 414v96h485v-96h-485z" />
<glyph unicode="&#x2013;" d="M-12 479v66h1048v-66h-1048z" />
<glyph unicode="&#x2014;" horiz-adv-x="2048" d="M-12 479v66h2072v-66h-2072z" />
<glyph unicode="&#x2018;" horiz-adv-x="362" d="M115 963v118q0 222 133 316v-70q-43 -78 -41 -168h41v-196h-133z" />
<glyph unicode="&#x2019;" horiz-adv-x="362" d="M115 963v69q14 27 19.5 39t14.5 50t9 81h-43v195h133v-119q0 -219 -133 -315z" />
<glyph unicode="&#x201a;" horiz-adv-x="362" d="M115 0v197h133v-121q0 -220 -133 -316v72q43 78 43 168h-43z" />
<glyph unicode="&#x201c;" horiz-adv-x="811" d="M115 963v118q0 222 133 316v-70q-43 -78 -41 -168h41v-196h-133zM563 963v118q0 222 133 316v-70q-45 -73 -43 -168h43v-196h-133z" />
<glyph unicode="&#x201d;" horiz-adv-x="811" d="M115 963v69q45 77 43 170h-43v195h133v-119q0 -219 -133 -315zM561 963v69q45 77 43 170h-43v195h135v-119q0 -219 -135 -315z" />
<glyph unicode="&#x201e;" horiz-adv-x="811" d="M119 0v195h133v-119q0 -220 -133 -316v70q14 27 19.5 39t14 50t7.5 81h-41zM559 0v195h133v-119q0 -220 -133 -316v70q14 27 19.5 39t14 50t7.5 81h-41z" />
<glyph unicode="&#x2022;" d="M262 698q0 105 74 177.5t176 72.5t176 -73t74 -177t-73.5 -176.5t-176.5 -72.5q-102 0 -176 73t-74 176z" />
<glyph unicode="&#x2026;" horiz-adv-x="2048" d="M274 0v199h134v-199h-134zM956 0v199h136v-199h-136zM1640 0v199h134v-199h-134z" />
<glyph unicode="&#x202f;" horiz-adv-x="383" />
<glyph unicode="&#x2039;" horiz-adv-x="575" d="M33 473l387 459h123l-385 -459l385 -459h-123z" />
<glyph unicode="&#x203a;" horiz-adv-x="575" d="M33 14l385 459l-385 459h123l387 -459l-387 -459h-123z" />
<glyph unicode="&#x205f;" horiz-adv-x="479" />
<glyph unicode="&#x20ac;" horiz-adv-x="1144" d="M33 532l18 99h125q-5 56 0 131h-143l18 98h133q17 116 60.5 215.5t111 176t163.5 120t210 43.5q76 0 153 -19t117.5 -36.5t96.5 -46.5l-21 -105q-96 53 -174.5 79t-167.5 26q-90 0 -165.5 -35.5t-128.5 -98t-88 -143.5t-50 -176h705l-19 -98h-696q-4 -53 0 -131h674 l-19 -99h-645q33 -188 100 -280q128 -166 322 -166q92 0 177 35.5t183 101.5v-112q-49 -33 -86 -55t-118 -48t-160 -26q-50 0 -103 10t-125 45t-130 92t-108 161.5t-69 241.5h-151z" />
<glyph unicode="&#x2122;" horiz-adv-x="1921" d="M203 1309v88h635v-88h-267v-729h-102v729h-266zM932 580v817h153l205 -654l211 654h156v-817h-92v729l-242 -729h-70l-229 729v-729h-92z" />
<glyph unicode="&#x25fc;" horiz-adv-x="921" d="M0 0v922h922v-922h-922z" />
</font>
</defs>
</svg>
